<?xml version="1.0" encoding="utf-8" standalone="no"?>
<!DOCTYPE svg PUBLIC "-//W3C//DTD SVG 1.1//EN"
  "http://www.w3.org/Graphics/SVG/1.1/DTD/svg11.dtd">
<!-- Created with matplotlib (https://matplotlib.org/) -->
<svg height="394.333438pt" version="1.1" viewBox="0 0 492.909375 394.333438" width="492.909375pt" xmlns="http://www.w3.org/2000/svg" xmlns:xlink="http://www.w3.org/1999/xlink">
 <metadata>
  <rdf:RDF xmlns:cc="http://creativecommons.org/ns#" xmlns:dc="http://purl.org/dc/elements/1.1/" xmlns:rdf="http://www.w3.org/1999/02/22-rdf-syntax-ns#">
   <cc:Work>
    <dc:type rdf:resource="http://purl.org/dc/dcmitype/StillImage"/>
    <dc:date>2021-04-30T17:04:01.609617</dc:date>
    <dc:format>image/svg+xml</dc:format>
    <dc:creator>
     <cc:Agent>
      <dc:title>Matplotlib v3.3.4, https://matplotlib.org/</dc:title>
     </cc:Agent>
    </dc:creator>
   </cc:Work>
  </rdf:RDF>
 </metadata>
 <defs>
  <style type="text/css">*{stroke-linecap:butt;stroke-linejoin:round;}</style>
 </defs>
 <g id="figure_1">
  <g id="patch_1">
   <path d="M 0 394.333438 
L 492.909375 394.333438 
L 492.909375 0 
L 0 0 
z
" style="fill:none;"/>
  </g>
  <g id="axes_1">
   <g id="patch_2">
    <path d="M 39.309375 355.688125 
L 485.709375 355.688125 
L 485.709375 29.528125 
L 39.309375 29.528125 
z
" style="fill:#ffffff;"/>
   </g>
   <g id="matplotlib.axis_1">
    <g id="xtick_1">
     <g id="line2d_1">
      <path clip-path="url(#pd603db8c78)" d="M 64.109375 355.688125 
L 64.109375 29.528125 
" style="fill:none;stroke:#b0b0b0;stroke-linecap:square;stroke-width:0.8;"/>
     </g>
     <g id="line2d_2">
      <defs>
       <path d="M 0 0 
L 0 3.5 
" id="m8bad828aff" style="stroke:#000000;stroke-width:0.8;"/>
      </defs>
      <g>
       <use style="stroke:#000000;stroke-width:0.8;" x="64.109375" xlink:href="#m8bad828aff" y="355.688125"/>
      </g>
     </g>
     <g id="text_1">
      <!-- 金华 -->
      <g transform="translate(54.109375 370.539688)scale(0.1 -0.1)">
       <defs>
        <path d="M 28.125 19.53125 
Q 34.375 10.9375 39.0625 3.515625 
Q 36.328125 1.953125 33.59375 -0.78125 
L 45.703125 -0.78125 
L 45.703125 21.875 
L 32.421875 21.875 
Q 26.953125 21.875 17.1875 21.484375 
L 17.1875 28.90625 
Q 26.953125 28.515625 32.03125 28.515625 
L 45.703125 28.515625 
L 45.703125 40.625 
Q 32.8125 40.625 25.390625 40.234375 
L 25.390625 46.484375 
Q 19.140625 41.796875 10.15625 36.71875 
Q 7.8125 40.234375 4.296875 43.359375 
Q 11.71875 46.09375 19.53125 51.5625 
Q 27.34375 57.03125 34.765625 65.03125 
Q 42.1875 73.046875 46.875 82.03125 
Q 47.65625 81.25 55.078125 77.734375 
L 52.734375 75.390625 
Q 57.03125 70.703125 63.28125 64.84375 
Q 69.53125 58.984375 78.125 54.484375 
Q 86.71875 50 96.09375 47.265625 
Q 92.96875 44.140625 91.015625 39.84375 
Q 83.203125 42.578125 75 46.875 
L 75 40.234375 
Q 67.1875 40.625 62.5 40.625 
L 53.125 40.625 
L 53.125 28.515625 
L 66.796875 28.515625 
Q 73.4375 28.515625 83.203125 28.90625 
L 83.203125 21.484375 
Q 73.828125 21.875 66.796875 21.875 
L 53.125 21.875 
L 53.125 -0.78125 
L 60.546875 -0.78125 
Q 69.53125 14.84375 70.3125 20.3125 
Q 73.828125 17.96875 78.90625 15.625 
Q 76.171875 12.109375 68.359375 -0.78125 
Q 80.46875 -0.78125 91.796875 -0.390625 
L 91.796875 -7.8125 
Q 80.46875 -7.421875 73.4375 -7.421875 
L 26.953125 -7.421875 
Q 18.75 -7.421875 10.9375 -7.8125 
L 10.9375 -0.390625 
Q 19.140625 -0.78125 26.953125 -0.78125 
L 31.640625 -0.78125 
Q 28.90625 5.46875 21.875 14.84375 
Q 25.390625 17.1875 28.125 19.53125 
z
M 26.5625 47.65625 
Q 32.421875 47.265625 37.5 47.265625 
L 60.9375 47.265625 
Q 66.796875 47.65625 73.4375 47.65625 
Q 66.796875 52.34375 59.953125 58.78125 
Q 53.125 65.234375 48.828125 70.703125 
Q 44.53125 64.84375 38.46875 58.78125 
Q 32.421875 52.734375 26.5625 47.65625 
z
" id="SimHei-37329"/>
        <path d="M 61.71875 80.859375 
Q 60.9375 76.171875 60.9375 69.53125 
L 60.9375 60.15625 
Q 66.796875 62.890625 72.0625 66.015625 
Q 77.34375 69.140625 83.59375 75 
Q 85.9375 71.875 90.234375 67.578125 
Q 85.15625 65.625 76.5625 60.9375 
Q 67.96875 56.25 60.9375 52.734375 
L 60.9375 42.578125 
Q 60.9375 37.5 66.40625 37.5 
L 80.078125 37.5 
Q 85.15625 37.5 85.9375 39.84375 
Q 86.71875 42.1875 87.5 47.65625 
Q 92.1875 44.921875 96.484375 43.75 
Q 94.53125 36.328125 92.1875 33.59375 
Q 89.84375 30.859375 85.546875 30.859375 
L 61.71875 30.859375 
Q 53.515625 30.859375 53.125 39.0625 
L 53.125 49.609375 
Q 44.921875 45.703125 40.625 44.140625 
Q 39.453125 47.65625 36.328125 50.78125 
Q 43.75 52.34375 53.125 56.640625 
L 53.125 68.75 
Q 53.125 76.171875 52.734375 80.859375 
L 61.71875 80.859375 
z
M 44.921875 19.140625 
Q 44.921875 25.78125 44.53125 30.078125 
L 52.734375 30.078125 
Q 52.34375 26.5625 52.34375 19.140625 
L 80.46875 19.140625 
Q 86.328125 19.140625 94.140625 19.53125 
L 94.140625 11.71875 
Q 86.71875 12.109375 80.859375 12.109375 
L 52.34375 12.109375 
Q 52.34375 -3.90625 52.734375 -8.984375 
L 44.53125 -8.984375 
Q 44.921875 -3.515625 44.921875 12.109375 
L 16.40625 12.109375 
Q 11.328125 12.109375 5.078125 11.71875 
L 5.078125 19.53125 
Q 11.328125 19.140625 16.796875 19.140625 
z
M 37.890625 76.953125 
Q 35.15625 74.609375 33.59375 71.875 
Q 32.03125 69.140625 29.6875 66.015625 
L 29.6875 40.625 
Q 29.6875 34.375 30.078125 27.34375 
L 21.484375 27.34375 
Q 21.875 34.765625 21.875 40.625 
L 21.875 57.421875 
Q 20.3125 54.6875 17.1875 51.359375 
Q 14.0625 48.046875 10.9375 44.53125 
Q 7.421875 48.046875 4.296875 50.390625 
Q 9.765625 54.296875 14.25 59.375 
Q 18.75 64.453125 21.484375 68.15625 
Q 24.21875 71.875 25.96875 75.578125 
Q 27.734375 79.296875 28.515625 81.640625 
Q 32.421875 79.296875 37.890625 76.953125 
z
" id="SimHei-21326"/>
       </defs>
       <use xlink:href="#SimHei-37329"/>
       <use x="100" xlink:href="#SimHei-21326"/>
      </g>
     </g>
    </g>
    <g id="xtick_2">
     <g id="line2d_3">
      <path clip-path="url(#pd603db8c78)" d="M 113.709375 355.688125 
L 113.709375 29.528125 
" style="fill:none;stroke:#b0b0b0;stroke-linecap:square;stroke-width:0.8;"/>
     </g>
     <g id="line2d_4">
      <g>
       <use style="stroke:#000000;stroke-width:0.8;" x="113.709375" xlink:href="#m8bad828aff" y="355.688125"/>
      </g>
     </g>
     <g id="text_2">
      <!-- 宁波 -->
      <g transform="translate(103.709375 370.774063)scale(0.1 -0.1)">
       <defs>
        <path d="M 34.765625 -0.78125 
Q 41.40625 -0.78125 44.328125 -0.578125 
Q 47.265625 -0.390625 47.265625 1.5625 
L 47.265625 35.546875 
L 22.265625 35.546875 
Q 17.96875 35.546875 8.203125 35.15625 
L 8.203125 42.578125 
Q 15.625 42.1875 23.046875 42.1875 
L 76.953125 42.1875 
Q 82.8125 42.1875 92.1875 42.578125 
L 92.1875 35.15625 
Q 82.8125 35.546875 76.953125 35.546875 
L 55.46875 35.546875 
L 55.46875 -0.390625 
Q 55.46875 -6.640625 50.96875 -7.609375 
Q 46.484375 -8.59375 37.5 -9.375 
Q 37.109375 -6.640625 34.765625 -0.78125 
z
M 92.96875 67.578125 
Q 92.578125 62.5 92.578125 57.421875 
Q 92.578125 52.734375 92.96875 48.828125 
L 84.375 48.828125 
L 84.375 60.546875 
L 17.1875 60.546875 
L 17.1875 49.609375 
L 7.8125 49.609375 
Q 8.203125 53.90625 8.203125 58.59375 
Q 8.203125 63.28125 7.8125 67.578125 
L 49.21875 67.578125 
Q 46.484375 74.609375 42.578125 78.90625 
Q 46.875 80.46875 50.78125 82.8125 
Q 53.515625 77.34375 57.8125 70.703125 
Q 54.296875 69.53125 51.171875 67.578125 
z
" id="SimHei-23425"/>
        <path d="M 79.296875 51.171875 
Q 80.859375 56.25 81.640625 60.15625 
L 67.578125 60.15625 
L 67.578125 42.96875 
L 86.71875 42.96875 
Q 84.375 32.8125 80.078125 23.625 
Q 75.78125 14.453125 70.703125 8.59375 
Q 74.609375 5.46875 81.25 2.734375 
Q 87.890625 0 96.484375 -1.5625 
Q 92.1875 -4.6875 90.234375 -9.375 
Q 82.03125 -6.640625 75 -2.734375 
Q 67.96875 1.171875 65.625 3.515625 
Q 61.71875 0.390625 55.265625 -3.3125 
Q 48.828125 -7.03125 39.0625 -10.546875 
Q 37.109375 -7.8125 32.03125 -5.859375 
Q 39.453125 -3.90625 47.84375 0.390625 
Q 56.25 4.6875 60.15625 8.59375 
Q 51.953125 20.3125 48.046875 36.328125 
L 44.140625 36.328125 
Q 43.75 21.875 38.859375 11.328125 
Q 33.984375 0.78125 29.296875 -4.6875 
Q 26.5625 -2.34375 21.484375 -0.78125 
Q 27.34375 5.078125 30.46875 11.125 
Q 33.59375 17.1875 35.34375 23.046875 
Q 37.109375 28.90625 37.296875 44.140625 
Q 37.5 59.375 36.71875 66.796875 
L 60.546875 66.796875 
Q 60.546875 75.78125 60.15625 81.25 
L 67.96875 81.25 
Q 67.578125 76.5625 67.578125 66.796875 
L 91.40625 66.796875 
Q 91.015625 64.453125 89.84375 59.953125 
Q 88.671875 55.46875 87.5 50 
Q 82.8125 50.78125 79.296875 51.171875 
z
M 55.078125 36.328125 
Q 59.375 21.875 65.625 14.453125 
Q 72.65625 23.046875 76.953125 36.328125 
z
M 30.46875 26.5625 
Q 26.5625 21.484375 19.71875 11.125 
Q 12.890625 0.78125 10.546875 -3.125 
Q 7.421875 0.78125 3.515625 4.296875 
Q 8.203125 8.203125 14.640625 17.1875 
Q 21.09375 26.171875 24.21875 32.8125 
L 30.46875 26.5625 
z
M 60.546875 42.96875 
L 60.546875 60.15625 
L 44.53125 60.15625 
L 44.53125 42.96875 
z
M 14.453125 76.953125 
Q 25 70.703125 31.25 66.40625 
Q 28.125 62.890625 26.171875 59.375 
Q 19.53125 64.84375 9.765625 70.3125 
Q 12.109375 73.4375 14.453125 76.953125 
z
M 9.375 55.078125 
Q 17.578125 50.78125 26.953125 44.53125 
Q 23.828125 41.796875 21.875 37.890625 
Q 14.453125 44.140625 5.46875 48.4375 
Q 7.03125 51.171875 9.375 55.078125 
z
" id="SimHei-27874"/>
       </defs>
       <use xlink:href="#SimHei-23425"/>
       <use x="100" xlink:href="#SimHei-27874"/>
      </g>
     </g>
    </g>
    <g id="xtick_3">
     <g id="line2d_5">
      <path clip-path="url(#pd603db8c78)" d="M 163.309375 355.688125 
L 163.309375 29.528125 
" style="fill:none;stroke:#b0b0b0;stroke-linecap:square;stroke-width:0.8;"/>
     </g>
     <g id="line2d_6">
      <g>
       <use style="stroke:#000000;stroke-width:0.8;" x="163.309375" xlink:href="#m8bad828aff" y="355.688125"/>
      </g>
     </g>
     <g id="text_3">
      <!-- 杭州 -->
      <g transform="translate(153.309375 370.617813)scale(0.1 -0.1)">
       <defs>
        <path d="M 34.375 23.828125 
Q 32.03125 30.078125 26.5625 37.890625 
L 26.5625 7.8125 
Q 26.5625 0 26.953125 -8.203125 
L 19.140625 -8.203125 
Q 19.53125 0.390625 19.53125 7.8125 
L 19.53125 33.59375 
Q 15.234375 24.21875 8.984375 14.453125 
Q 5.859375 17.96875 3.125 19.53125 
Q 8.203125 25.78125 12.6875 34.5625 
Q 17.1875 43.359375 19.140625 53.125 
Q 11.71875 53.125 5.859375 52.734375 
L 5.859375 59.375 
Q 12.109375 58.984375 19.921875 58.984375 
L 19.921875 68.359375 
Q 19.921875 74.21875 19.53125 80.078125 
L 26.953125 80.078125 
Q 26.5625 75 26.5625 68.359375 
L 26.5625 58.984375 
Q 31.25 58.984375 37.109375 59.375 
L 37.109375 52.34375 
Q 31.25 52.734375 26.5625 52.734375 
L 26.5625 40.234375 
Q 28.90625 41.40625 31.25 43.359375 
Q 34.375 39.0625 40.625 28.515625 
Q 37.5 26.5625 34.375 23.828125 
z
M 79.6875 46.09375 
Q 79.296875 41.40625 79.296875 32.03125 
L 79.296875 7.03125 
Q 79.296875 1.953125 80.859375 0.96875 
Q 82.421875 0 84.953125 0.1875 
Q 87.5 0.390625 88.28125 1.953125 
Q 89.0625 3.515625 89.453125 8.984375 
Q 92.96875 6.25 96.875 5.859375 
Q 94.53125 -3.515625 92.375 -4.6875 
Q 90.234375 -5.859375 86.90625 -6.046875 
Q 83.59375 -6.25 77.921875 -5.859375 
Q 72.265625 -5.46875 72.265625 2.734375 
L 72.265625 39.84375 
L 56.25 39.84375 
Q 55.859375 28.125 55.46875 21.875 
Q 55.078125 15.625 53.515625 10.546875 
Q 51.953125 5.46875 48.625 0.78125 
Q 45.3125 -3.90625 38.28125 -9.765625 
Q 37.109375 -7.03125 32.421875 -4.296875 
Q 40.625 1.5625 43.546875 5.65625 
Q 46.484375 9.765625 47.65625 15.234375 
Q 48.828125 20.703125 49.015625 27.921875 
Q 49.21875 35.15625 48.828125 46.09375 
L 79.6875 46.09375 
z
M 83.203125 63.671875 
Q 85.9375 63.671875 91.796875 64.0625 
L 91.796875 57.03125 
Q 86.328125 57.421875 82.421875 57.421875 
L 50.78125 57.421875 
Q 45.3125 57.421875 41.015625 56.640625 
L 41.015625 64.0625 
Q 45.3125 63.671875 50.78125 63.671875 
z
M 62.890625 82.03125 
Q 66.40625 76.953125 70.703125 68.359375 
Q 66.40625 66.796875 63.671875 64.84375 
Q 59.765625 73.828125 56.640625 78.515625 
Q 60.9375 80.078125 62.890625 82.03125 
z
" id="SimHei-26477"/>
        <path d="M 86.71875 4.296875 
Q 86.71875 1.171875 87.109375 -7.8125 
L 78.90625 -7.8125 
Q 79.296875 -0.78125 79.296875 4.296875 
L 79.296875 64.84375 
Q 79.296875 69.921875 78.90625 78.515625 
L 87.109375 78.515625 
Q 86.71875 68.359375 86.71875 64.84375 
z
M 32.8125 78.125 
Q 32.03125 69.140625 32.03125 62.890625 
L 32.03125 34.765625 
Q 32.03125 23.4375 28.703125 12.5 
Q 25.390625 1.5625 16.796875 -9.375 
Q 12.890625 -6.640625 8.984375 -5.859375 
Q 14.0625 -1.171875 19.328125 8.78125 
Q 24.609375 18.75 25 33.984375 
L 25 63.28125 
Q 25 69.921875 24.609375 78.125 
L 32.8125 78.125 
z
M 58.59375 73.4375 
Q 58.203125 66.015625 58.203125 61.328125 
L 58.203125 9.375 
Q 58.203125 3.90625 58.59375 -4.6875 
L 50.78125 -4.6875 
Q 51.171875 4.296875 51.171875 9.375 
L 51.171875 60.9375 
Q 51.171875 66.015625 50.78125 73.4375 
L 58.59375 73.4375 
z
M 7.03125 25.390625 
Q 8.59375 32.03125 9.953125 38.671875 
Q 11.328125 45.3125 11.71875 52.734375 
Q 16.796875 52.34375 19.53125 52.34375 
Q 19.140625 49.21875 17.96875 41.984375 
Q 16.796875 34.765625 14.84375 24.21875 
Q 11.328125 25.390625 7.03125 25.390625 
z
M 67.578125 52.34375 
Q 74.21875 37.5 77.34375 30.46875 
Q 74.21875 28.515625 70.703125 27.34375 
Q 67.96875 35.9375 61.328125 49.21875 
Q 64.0625 50.78125 67.578125 52.34375 
z
M 41.40625 52.734375 
Q 45.703125 38.671875 48.828125 30.078125 
Q 44.921875 29.296875 41.796875 27.734375 
Q 39.453125 37.5 34.765625 50 
Q 36.71875 51.171875 41.40625 52.734375 
z
" id="SimHei-24030"/>
       </defs>
       <use xlink:href="#SimHei-26477"/>
       <use x="100" xlink:href="#SimHei-24030"/>
      </g>
     </g>
    </g>
    <g id="xtick_4">
     <g id="line2d_7">
      <path clip-path="url(#pd603db8c78)" d="M 212.909375 355.688125 
L 212.909375 29.528125 
" style="fill:none;stroke:#b0b0b0;stroke-linecap:square;stroke-width:0.8;"/>
     </g>
     <g id="line2d_8">
      <g>
       <use style="stroke:#000000;stroke-width:0.8;" x="212.909375" xlink:href="#m8bad828aff" y="355.688125"/>
      </g>
     </g>
     <g id="text_4">
      <!-- 铜陵 -->
      <g transform="translate(202.909375 370.695938)scale(0.1 -0.1)">
       <defs>
        <path d="M 91.015625 75.78125 
Q 90.625 67.96875 90.625 60.15625 
L 90.625 -1.5625 
Q 90.625 -5.46875 87.6875 -7.421875 
Q 84.765625 -9.375 77.734375 -10.9375 
Q 77.734375 -5.46875 75 -1.171875 
Q 82.8125 -1.5625 83.203125 1.5625 
L 83.203125 69.53125 
L 48.4375 69.53125 
L 48.4375 -10.546875 
L 41.015625 -10.546875 
Q 41.40625 -3.515625 41.40625 6.25 
L 41.40625 60.15625 
Q 41.40625 71.09375 41.015625 75.78125 
L 91.015625 75.78125 
z
M 28.125 77.734375 
Q 25.390625 75 21.484375 66.40625 
Q 28.90625 66.40625 35.15625 66.796875 
L 35.15625 59.375 
Q 28.90625 59.765625 24.609375 59.765625 
L 18.75 59.765625 
Q 15.234375 53.90625 12.5 49.21875 
Q 17.1875 48.828125 22.265625 48.828125 
Q 27.734375 48.828125 33.203125 49.21875 
L 33.203125 42.1875 
Q 27.34375 42.578125 24.21875 42.578125 
L 24.21875 30.078125 
Q 29.6875 30.078125 35.546875 30.46875 
L 35.546875 23.4375 
Q 29.6875 23.828125 24.21875 23.828125 
L 24.21875 4.296875 
Q 29.296875 8.984375 33.203125 13.28125 
Q 34.375 8.203125 35.546875 5.078125 
Q 32.421875 2.734375 27.53125 -1.171875 
Q 22.65625 -5.078125 19.140625 -8.984375 
Q 16.796875 -4.6875 14.453125 -2.34375 
Q 16.40625 -0.78125 17.578125 3.125 
L 17.578125 23.828125 
Q 11.71875 23.828125 6.25 23.4375 
L 6.25 30.46875 
Q 12.5 30.078125 17.578125 30.078125 
L 17.578125 42.578125 
Q 15.625 42.578125 10.9375 42.1875 
L 10.9375 46.875 
Q 10.15625 46.484375 8.203125 43.75 
Q 5.859375 48.046875 3.125 50 
Q 9.375 57.03125 14.0625 66.59375 
Q 18.75 76.171875 19.921875 81.640625 
Q 24.21875 79.296875 28.125 77.734375 
z
M 76.953125 41.40625 
Q 76.5625 35.9375 76.5625 26.171875 
Q 76.5625 16.40625 76.953125 10.9375 
L 54.296875 10.9375 
Q 54.6875 17.96875 54.6875 26.953125 
Q 54.6875 36.328125 54.296875 41.40625 
L 76.953125 41.40625 
z
M 69.921875 16.796875 
L 69.921875 35.546875 
L 61.328125 35.546875 
L 61.328125 16.796875 
z
M 77.734375 51.171875 
L 53.515625 51.171875 
L 53.515625 57.421875 
L 77.734375 57.421875 
z
" id="SimHei-38108"/>
        <path d="M 67.578125 39.0625 
Q 65.625 37.5 64.453125 35.546875 
Q 63.28125 33.59375 61.328125 31.25 
L 82.421875 31.25 
Q 80.46875 24.21875 77.734375 17.765625 
Q 75 11.328125 71.484375 6.25 
Q 76.5625 3.125 81.640625 1.953125 
Q 86.71875 0.78125 96.875 -0.390625 
Q 94.140625 -4.296875 93.359375 -8.59375 
Q 83.984375 -6.640625 77.53125 -4.09375 
Q 71.09375 -1.5625 66.40625 1.5625 
Q 59.375 -2.734375 54.484375 -5.078125 
Q 49.609375 -7.421875 39.84375 -9.765625 
Q 38.671875 -5.859375 35.546875 -1.953125 
Q 45.703125 -0.78125 51.171875 1.171875 
Q 56.640625 3.125 60.9375 6.25 
Q 57.8125 10.546875 55.859375 14.0625 
Q 53.90625 17.578125 53.125 19.53125 
Q 51.171875 16.796875 49.609375 15.03125 
Q 48.046875 13.28125 45.3125 10.15625 
Q 43.359375 12.890625 39.0625 14.84375 
Q 43.75 17.578125 49.609375 25.96875 
Q 55.46875 34.375 58.59375 42.578125 
Q 62.109375 40.625 67.578125 39.0625 
z
M 35.9375 75 
Q 34.765625 73.046875 31.828125 63.671875 
Q 28.90625 54.296875 26.5625 46.875 
Q 33.59375 38.28125 34.953125 32.8125 
Q 36.328125 27.34375 35.734375 22.84375 
Q 35.15625 18.359375 31.25 15.625 
Q 27.34375 12.890625 21.09375 11.328125 
Q 20.703125 16.40625 18.359375 20.3125 
Q 25.390625 20.3125 27.140625 22.84375 
Q 28.90625 25.390625 28.3125 29.296875 
Q 27.734375 33.203125 25 37.296875 
Q 22.265625 41.40625 18.75 45.3125 
Q 20.703125 50.390625 22.65625 56.640625 
L 26.5625 69.140625 
L 16.40625 69.140625 
L 16.40625 -8.203125 
L 8.984375 -8.203125 
Q 9.375 0.78125 9.375 13.28125 
L 9.375 58.984375 
Q 9.375 67.96875 8.984375 75 
L 35.9375 75 
z
M 67.96875 70.703125 
L 75.390625 70.703125 
Q 82.03125 70.703125 88.28125 71.484375 
L 88.28125 64.453125 
Q 82.03125 64.84375 75 64.84375 
L 67.96875 64.84375 
L 67.96875 55.46875 
L 81.640625 55.46875 
Q 87.5 55.859375 94.140625 56.25 
L 94.140625 49.21875 
Q 87.5 49.609375 81.640625 49.609375 
L 52.34375 49.609375 
Q 44.53125 49.609375 36.71875 49.21875 
L 36.71875 56.25 
Q 44.140625 55.859375 52.34375 55.46875 
L 60.9375 55.46875 
L 60.9375 64.84375 
L 56.25 64.84375 
Q 49.21875 64.84375 42.96875 64.453125 
L 42.96875 71.484375 
Q 48.4375 70.703125 56.25 70.703125 
L 60.9375 70.703125 
L 60.9375 73.4375 
Q 60.9375 76.5625 60.546875 80.859375 
L 68.359375 80.859375 
Q 67.96875 77.34375 67.96875 73.828125 
z
M 77.734375 49.21875 
Q 81.25 46.484375 85.734375 42.96875 
Q 90.234375 39.453125 94.921875 35.9375 
Q 92.1875 32.8125 89.0625 29.6875 
Q 84.765625 33.984375 80.46875 37.5 
Q 76.171875 41.015625 72.65625 43.359375 
Q 75 45.703125 77.734375 49.21875 
z
M 57.8125 44.53125 
Q 55.078125 42.578125 51.5625 38.28125 
Q 48.046875 33.984375 42.578125 28.515625 
Q 39.84375 31.640625 35.9375 33.984375 
Q 39.84375 36.71875 43.359375 40.234375 
Q 46.875 43.75 50 49.21875 
Q 53.515625 46.484375 57.8125 44.53125 
z
M 66.40625 10.546875 
Q 69.140625 14.0625 70.703125 17.765625 
Q 72.265625 21.484375 73.4375 25.390625 
L 58.203125 25.390625 
Q 59.375 21.875 61.125 18.15625 
Q 62.890625 14.453125 66.40625 10.546875 
z
" id="SimHei-38517"/>
       </defs>
       <use xlink:href="#SimHei-38108"/>
       <use x="100" xlink:href="#SimHei-38517"/>
      </g>
     </g>
    </g>
    <g id="xtick_5">
     <g id="line2d_9">
      <path clip-path="url(#pd603db8c78)" d="M 262.509375 355.688125 
L 262.509375 29.528125 
" style="fill:none;stroke:#b0b0b0;stroke-linecap:square;stroke-width:0.8;"/>
     </g>
     <g id="line2d_10">
      <g>
       <use style="stroke:#000000;stroke-width:0.8;" x="262.509375" xlink:href="#m8bad828aff" y="355.688125"/>
      </g>
     </g>
     <g id="text_5">
      <!-- 上海 -->
      <g transform="translate(252.509375 370.695938)scale(0.1 -0.1)">
       <defs>
        <path d="M 50.78125 79.296875 
Q 50.390625 72.65625 50.390625 66.796875 
L 50.390625 50.390625 
L 72.65625 50.390625 
Q 80.46875 50.390625 87.5 50.78125 
L 87.5 42.1875 
Q 79.6875 42.578125 71.875 42.578125 
L 50.390625 42.578125 
L 50.390625 3.125 
L 81.25 3.125 
Q 87.109375 3.125 94.921875 3.515625 
L 94.921875 -4.6875 
Q 87.5 -4.296875 81.25 -4.296875 
L 19.53125 -4.296875 
Q 13.28125 -4.296875 5.46875 -4.6875 
L 5.46875 3.515625 
Q 12.890625 3.125 19.53125 3.125 
L 42.1875 3.125 
L 42.1875 66.40625 
Q 42.1875 72.265625 41.796875 79.296875 
L 50.78125 79.296875 
z
" id="SimHei-19978"/>
        <path d="M 83.203125 9.375 
Q 85.9375 9.375 90.625 9.765625 
L 90.625 2.734375 
Q 87.5 3.125 82.8125 3.125 
Q 82.03125 -5.859375 79.09375 -7.8125 
Q 76.171875 -9.765625 69.53125 -10.546875 
Q 68.359375 -7.03125 66.40625 -2.734375 
Q 72.265625 -3.125 74.015625 -2.140625 
Q 75.78125 -1.171875 76.171875 3.125 
L 38.671875 3.125 
Q 39.84375 15.234375 40.625 26.953125 
Q 36.328125 26.953125 31.640625 26.5625 
L 31.640625 33.59375 
Q 35.546875 33.203125 41.015625 33.203125 
Q 41.796875 47.65625 42.1875 54.296875 
Q 40.234375 51.5625 35.15625 44.921875 
Q 32.421875 47.65625 29.296875 49.609375 
Q 35.9375 56.25 40.421875 65.234375 
Q 44.921875 74.21875 46.875 82.03125 
Q 51.5625 79.296875 55.078125 78.515625 
Q 53.515625 76.5625 50.78125 70.703125 
L 78.90625 70.703125 
Q 86.328125 70.703125 92.1875 71.09375 
L 92.1875 64.0625 
Q 86.328125 64.453125 78.515625 64.453125 
L 48.046875 64.453125 
Q 45.3125 59.765625 42.578125 55.46875 
L 85.15625 55.46875 
Q 84.765625 46.09375 84.375 33.203125 
Q 88.671875 33.203125 93.75 33.59375 
L 93.75 26.5625 
Q 88.671875 26.953125 83.984375 26.953125 
Q 83.59375 21.875 83.203125 9.375 
z
M 77.734375 26.953125 
L 46.875 26.953125 
Q 46.09375 16.40625 45.703125 9.375 
L 76.953125 9.375 
z
M 48.046875 49.21875 
Q 48.046875 44.140625 47.265625 33.203125 
L 78.125 33.203125 
Q 78.125 41.796875 78.515625 49.21875 
z
M 27.34375 23.828125 
Q 25 20.3125 21.484375 11.71875 
Q 17.96875 3.125 12.109375 -7.421875 
Q 10.546875 -5.078125 4.6875 -3.125 
Q 9.375 3.515625 13.671875 12.296875 
Q 17.96875 21.09375 21.09375 28.90625 
Q 23.828125 25.78125 27.34375 23.828125 
z
M 21.875 34.765625 
Q 11.328125 43.359375 3.90625 47.65625 
Q 6.640625 50.390625 8.203125 53.90625 
Q 15.234375 49.609375 26.953125 41.40625 
Q 23.828125 37.890625 21.875 34.765625 
z
M 12.890625 78.90625 
Q 20.3125 74.609375 31.640625 67.1875 
Q 28.90625 63.671875 26.5625 60.546875 
Q 17.578125 67.96875 8.59375 73.046875 
Q 11.328125 76.171875 12.890625 78.90625 
z
M 60.546875 25.390625 
Q 64.84375 19.140625 67.578125 14.0625 
Q 64.453125 12.5 62.109375 10.546875 
Q 58.984375 16.796875 55.46875 21.875 
Q 58.203125 23.828125 60.546875 25.390625 
z
M 61.328125 48.4375 
Q 65.625 42.1875 67.96875 37.5 
Q 64.84375 35.9375 62.5 33.984375 
Q 60.15625 39.0625 56.640625 44.921875 
L 61.328125 48.4375 
z
" id="SimHei-28023"/>
       </defs>
       <use xlink:href="#SimHei-19978"/>
       <use x="100" xlink:href="#SimHei-28023"/>
      </g>
     </g>
    </g>
    <g id="xtick_6">
     <g id="line2d_11">
      <path clip-path="url(#pd603db8c78)" d="M 312.109375 355.688125 
L 312.109375 29.528125 
" style="fill:none;stroke:#b0b0b0;stroke-linecap:square;stroke-width:0.8;"/>
     </g>
     <g id="line2d_12">
      <g>
       <use style="stroke:#000000;stroke-width:0.8;" x="312.109375" xlink:href="#m8bad828aff" y="355.688125"/>
      </g>
     </g>
     <g id="text_6">
      <!-- 芜湖 -->
      <g transform="translate(302.109375 370.695938)scale(0.1 -0.1)">
       <defs>
        <path d="M 68.75 51.171875 
Q 75.390625 51.171875 82.03125 51.5625 
L 82.03125 44.140625 
Q 75.78125 44.53125 69.140625 44.53125 
L 50 44.53125 
Q 49.609375 37.890625 48.828125 32.421875 
L 78.90625 32.421875 
Q 86.71875 32.421875 92.96875 32.8125 
L 92.96875 25.390625 
Q 86.71875 25.78125 78.90625 25.78125 
L 60.9375 25.78125 
L 60.9375 4.6875 
Q 60.9375 0.390625 64.84375 0.390625 
L 79.296875 0.390625 
Q 81.640625 0.390625 83.203125 1.359375 
Q 84.765625 2.34375 85.9375 10.546875 
Q 89.0625 7.8125 94.140625 6.640625 
Q 91.796875 -2.34375 89.453125 -4.09375 
Q 87.109375 -5.859375 82.8125 -5.859375 
L 62.109375 -5.859375 
Q 53.90625 -5.859375 53.515625 1.5625 
L 53.515625 25.78125 
L 47.65625 25.78125 
Q 44.53125 16.40625 39.453125 9.171875 
Q 34.375 1.953125 28.703125 -1.953125 
Q 23.046875 -5.859375 13.28125 -10.546875 
Q 11.71875 -6.640625 6.25 -3.515625 
Q 13.28125 -1.5625 19.140625 1.359375 
Q 25 4.296875 31.046875 10.546875 
Q 37.109375 16.796875 39.453125 25.78125 
L 21.09375 25.78125 
Q 13.671875 25.78125 7.8125 25.390625 
L 7.8125 32.8125 
Q 13.671875 32.421875 21.09375 32.421875 
L 41.40625 32.421875 
Q 42.1875 38.28125 42.1875 44.53125 
L 31.25 44.53125 
Q 23.828125 44.53125 17.1875 44.140625 
L 17.1875 51.5625 
Q 23.828125 51.171875 31.25 51.171875 
z
M 31.640625 69.921875 
Q 31.640625 75.390625 31.25 80.078125 
L 39.0625 80.078125 
Q 38.671875 75.390625 38.671875 69.921875 
L 59.375 69.921875 
Q 59.375 75.78125 58.984375 80.078125 
L 66.796875 80.078125 
Q 66.40625 75.78125 66.40625 69.921875 
L 80.46875 69.921875 
Q 87.109375 69.921875 93.359375 70.3125 
L 93.359375 62.890625 
Q 87.109375 63.28125 80.46875 63.28125 
L 66.40625 63.28125 
Q 66.40625 60.546875 66.796875 55.859375 
L 59.375 55.859375 
L 59.375 63.28125 
L 38.671875 63.28125 
L 38.671875 55.46875 
L 31.25 55.46875 
Q 31.640625 60.546875 31.640625 63.28125 
L 19.53125 63.28125 
Q 13.28125 63.28125 6.640625 62.890625 
L 6.640625 70.3125 
Q 13.28125 69.921875 19.53125 69.921875 
z
" id="SimHei-33436"/>
        <path d="M 93.359375 76.5625 
Q 92.96875 67.96875 92.96875 62.5 
L 92.96875 0.78125 
Q 92.96875 -4.6875 89.0625 -6.25 
Q 85.15625 -7.8125 78.125 -8.984375 
Q 77.34375 -5.078125 74.21875 -0.78125 
Q 81.25 -1.171875 83.390625 -0.578125 
Q 85.546875 0 85.9375 4.6875 
L 85.9375 23.828125 
L 70.703125 23.828125 
Q 69.53125 15.625 67.765625 10.15625 
Q 66.015625 4.6875 62.6875 -0.390625 
Q 59.375 -5.46875 53.90625 -10.9375 
Q 51.171875 -8.203125 46.484375 -6.25 
Q 53.515625 -1.171875 57.421875 5.265625 
Q 61.328125 11.71875 62.6875 18.75 
Q 64.0625 25.78125 64.453125 35.9375 
Q 64.84375 46.09375 64.84375 57.421875 
Q 64.84375 69.140625 64.453125 76.5625 
L 93.359375 76.5625 
z
M 49.21875 5.46875 
L 49.21875 11.71875 
L 37.109375 11.71875 
L 37.109375 1.5625 
L 29.6875 1.5625 
Q 30.078125 6.640625 30.078125 19.53125 
Q 30.078125 32.421875 29.6875 38.671875 
L 40.234375 38.671875 
L 40.234375 54.296875 
Q 31.25 54.296875 26.953125 53.90625 
L 26.953125 60.9375 
Q 31.25 60.546875 40.234375 60.546875 
L 40.234375 69.921875 
Q 40.234375 74.609375 39.84375 81.640625 
L 47.65625 81.640625 
Q 47.265625 75.390625 47.265625 69.921875 
L 47.265625 60.546875 
Q 54.6875 60.546875 59.765625 60.9375 
L 59.765625 53.90625 
Q 54.296875 54.296875 47.265625 54.296875 
L 47.265625 38.671875 
L 56.640625 38.671875 
Q 56.25 32.8125 56.25 24.21875 
Q 56.25 15.625 56.640625 5.46875 
z
M 25.78125 23.828125 
Q 21.484375 16.40625 19.328125 11.125 
Q 17.1875 5.859375 14.84375 0.78125 
Q 12.5 -4.296875 10.9375 -7.8125 
Q 6.640625 -4.6875 3.125 -3.515625 
Q 7.421875 2.734375 11.90625 12.296875 
Q 16.40625 21.875 18.75 29.296875 
Q 21.484375 25.78125 25.78125 23.828125 
z
M 85.9375 52.734375 
L 85.9375 70.3125 
L 71.484375 70.3125 
L 71.484375 52.734375 
z
M 85.9375 30.078125 
L 85.9375 46.875 
L 71.484375 46.875 
Q 71.09375 34.375 71.09375 30.078125 
z
M 49.21875 17.578125 
L 49.21875 32.8125 
L 37.109375 32.8125 
L 37.109375 17.578125 
z
M 7.8125 54.6875 
Q 12.109375 51.953125 15.234375 50 
L 25.390625 44.140625 
Q 21.875 40.625 20.3125 37.5 
Q 15.625 41.015625 12.296875 43.359375 
Q 8.984375 45.703125 3.90625 48.828125 
Q 6.25 51.5625 7.8125 54.6875 
z
M 12.5 78.90625 
Q 16.40625 76.171875 19.921875 73.4375 
Q 23.4375 70.703125 28.125 67.96875 
L 22.265625 62.109375 
Q 18.359375 65.625 15.234375 67.96875 
Q 12.109375 70.3125 8.203125 72.65625 
Q 10.546875 76.171875 12.5 78.90625 
z
" id="SimHei-28246"/>
       </defs>
       <use xlink:href="#SimHei-33436"/>
       <use x="100" xlink:href="#SimHei-28246"/>
      </g>
     </g>
    </g>
    <g id="xtick_7">
     <g id="line2d_13">
      <path clip-path="url(#pd603db8c78)" d="M 361.709375 355.688125 
L 361.709375 29.528125 
" style="fill:none;stroke:#b0b0b0;stroke-linecap:square;stroke-width:0.8;"/>
     </g>
     <g id="line2d_14">
      <g>
       <use style="stroke:#000000;stroke-width:0.8;" x="361.709375" xlink:href="#m8bad828aff" y="355.688125"/>
      </g>
     </g>
     <g id="text_7">
      <!-- 合肥 -->
      <g transform="translate(351.709375 370.539688)scale(0.1 -0.1)">
       <defs>
        <path d="M 78.90625 28.125 
Q 78.515625 24.21875 78.515625 10.15625 
Q 78.515625 -3.90625 78.90625 -8.203125 
L 70.703125 -8.203125 
L 70.703125 -0.78125 
L 27.34375 -0.78125 
L 27.34375 -9.375 
L 19.53125 -9.375 
Q 19.921875 -4.6875 19.921875 8.59375 
Q 19.921875 22.265625 19.53125 28.125 
L 78.90625 28.125 
z
M 52.734375 75 
Q 64.0625 61.328125 71.09375 56.25 
Q 78.125 51.171875 83.984375 48.4375 
Q 89.84375 45.703125 95.3125 44.140625 
Q 91.40625 39.84375 90.234375 35.9375 
Q 82.421875 39.453125 76.171875 43.359375 
Q 69.921875 47.265625 63.46875 53.3125 
Q 57.03125 59.375 48.828125 69.921875 
Q 41.40625 59.375 34.171875 52.53125 
Q 26.953125 45.703125 21.875 41.796875 
Q 16.796875 37.890625 10.546875 33.984375 
Q 9.765625 35.546875 4.296875 40.234375 
Q 12.5 44.140625 19.921875 49.609375 
Q 27.34375 55.078125 34.765625 63.46875 
Q 42.1875 71.875 46.875 81.640625 
Q 51.171875 78.90625 54.6875 77.34375 
z
M 70.703125 5.46875 
L 70.703125 21.875 
L 27.34375 21.875 
L 27.34375 5.46875 
z
M 61.328125 44.140625 
Q 67.578125 44.140625 72.265625 44.53125 
L 72.265625 37.109375 
Q 67.1875 37.5 61.71875 37.5 
L 39.84375 37.5 
Q 31.640625 37.5 26.5625 37.109375 
L 26.5625 44.53125 
Q 33.984375 44.140625 39.84375 44.140625 
z
" id="SimHei-21512"/>
        <path d="M 89.453125 74.609375 
Q 89.0625 71.09375 89.0625 50.78125 
Q 89.0625 30.46875 89.453125 24.21875 
L 82.421875 24.21875 
L 82.421875 31.25 
L 54.296875 31.25 
L 54.296875 6.640625 
Q 54.296875 0 61.71875 0 
L 80.078125 0 
Q 84.375 0 85.34375 2.34375 
Q 86.328125 4.6875 87.109375 12.890625 
Q 91.015625 10.546875 95.703125 8.59375 
Q 92.96875 -0.390625 91.40625 -3.3125 
Q 89.84375 -6.25 83.203125 -6.25 
L 56.640625 -6.25 
Q 47.65625 -6.25 47.65625 4.296875 
L 47.65625 63.28125 
Q 47.65625 69.921875 47.265625 74.609375 
z
M 22.65625 1.953125 
Q 27.734375 1.5625 30.265625 1.953125 
Q 32.8125 2.34375 32.8125 6.640625 
L 32.8125 26.171875 
L 18.359375 26.171875 
Q 17.578125 16.796875 16.015625 9.171875 
Q 14.453125 1.5625 10.546875 -7.8125 
Q 7.03125 -3.90625 3.515625 -2.734375 
Q 8.203125 5.46875 9.765625 15.234375 
Q 11.328125 25 11.515625 35.9375 
Q 11.71875 46.875 11.71875 58.984375 
Q 11.71875 71.09375 11.328125 76.953125 
L 40.234375 76.953125 
Q 39.84375 69.140625 39.84375 61.71875 
L 39.84375 3.90625 
Q 39.84375 -3.125 36.328125 -4.6875 
Q 32.8125 -6.25 25.78125 -7.8125 
Q 25 -3.125 22.65625 1.953125 
z
M 82.421875 36.71875 
L 82.421875 69.140625 
L 71.484375 69.140625 
L 71.484375 36.71875 
z
M 64.84375 36.71875 
L 64.84375 69.140625 
L 54.296875 69.140625 
L 54.296875 36.71875 
z
M 32.8125 32.8125 
L 32.8125 48.828125 
L 18.75 48.828125 
L 18.75 32.8125 
z
M 32.8125 55.078125 
L 32.8125 70.703125 
L 18.75 70.703125 
L 18.75 55.078125 
z
" id="SimHei-32933"/>
       </defs>
       <use xlink:href="#SimHei-21512"/>
       <use x="100" xlink:href="#SimHei-32933"/>
      </g>
     </g>
    </g>
    <g id="xtick_8">
     <g id="line2d_15">
      <path clip-path="url(#pd603db8c78)" d="M 411.309375 355.688125 
L 411.309375 29.528125 
" style="fill:none;stroke:#b0b0b0;stroke-linecap:square;stroke-width:0.8;"/>
     </g>
     <g id="line2d_16">
      <g>
       <use style="stroke:#000000;stroke-width:0.8;" x="411.309375" xlink:href="#m8bad828aff" y="355.688125"/>
      </g>
     </g>
     <g id="text_8">
      <!-- 南京 -->
      <g transform="translate(401.309375 370.695938)scale(0.1 -0.1)">
       <defs>
        <path d="M 71.09375 -1.5625 
Q 76.953125 -1.5625 79.6875 -1.359375 
Q 82.421875 -1.171875 81.640625 2.734375 
L 81.640625 48.046875 
L 17.578125 48.046875 
L 17.578125 -9.375 
L 8.984375 -9.375 
Q 9.765625 0.390625 9.765625 10.546875 
L 9.765625 34.375 
Q 9.765625 43.75 8.984375 53.90625 
L 42.96875 53.90625 
L 44.921875 64.84375 
L 29.296875 64.84375 
Q 19.53125 64.84375 6.640625 64.0625 
L 6.640625 71.484375 
Q 15.625 70.703125 26.5625 70.703125 
L 45.703125 70.703125 
Q 46.875 78.125 46.875 82.421875 
Q 51.953125 81.25 55.859375 80.859375 
Q 54.296875 76.5625 53.515625 70.703125 
L 79.6875 70.703125 
Q 86.328125 70.703125 94.140625 71.09375 
L 94.140625 64.453125 
Q 86.71875 64.84375 79.6875 64.84375 
L 52.734375 64.84375 
L 50.78125 53.90625 
L 90.234375 53.90625 
Q 89.453125 44.921875 89.453125 37.890625 
L 89.453125 -1.171875 
Q 89.0625 -6.640625 84.765625 -7.609375 
Q 80.46875 -8.59375 75 -9.765625 
Q 73.828125 -5.46875 71.09375 -1.5625 
z
M 25.390625 31.640625 
Q 30.859375 30.859375 39.0625 30.859375 
L 52.34375 30.859375 
Q 54.6875 33.984375 56.25 37.109375 
Q 57.8125 40.234375 60.546875 45.3125 
Q 64.453125 43.359375 69.53125 41.40625 
Q 66.40625 40.234375 64.640625 37.109375 
Q 62.890625 33.984375 60.546875 30.859375 
L 65.234375 30.859375 
Q 69.140625 30.859375 74.609375 31.25 
L 74.609375 24.609375 
Q 69.53125 25 62.890625 25 
L 53.90625 25 
L 53.90625 17.1875 
L 65.234375 17.1875 
Q 73.4375 17.1875 77.34375 17.578125 
L 77.34375 10.546875 
Q 73.4375 10.9375 65.234375 10.9375 
L 53.90625 10.9375 
L 53.90625 4.296875 
Q 53.90625 -0.78125 54.296875 -5.859375 
L 45.703125 -5.859375 
Q 46.09375 -1.5625 46.09375 4.296875 
L 46.09375 10.9375 
L 35.546875 10.9375 
Q 26.953125 10.9375 22.265625 10.546875 
L 22.265625 17.96875 
Q 28.125 17.1875 34.765625 17.1875 
L 46.09375 17.1875 
L 46.09375 25 
L 39.0625 25 
Q 31.25 25 25.390625 24.609375 
z
M 44.53125 36.328125 
Q 41.40625 34.375 38.28125 32.03125 
Q 36.71875 35.15625 34.765625 37.6875 
Q 32.8125 40.234375 30.859375 42.1875 
Q 33.203125 43.359375 36.328125 46.09375 
Q 38.671875 43.359375 40.421875 41.40625 
Q 42.1875 39.453125 44.53125 36.328125 
z
" id="SimHei-21335"/>
        <path d="M 79.6875 53.90625 
Q 79.296875 47.65625 79.296875 38.671875 
Q 79.296875 30.078125 79.6875 25.390625 
L 55.078125 25.390625 
L 55.078125 1.5625 
Q 55.078125 -5.078125 51.5625 -7.03125 
Q 48.046875 -8.984375 38.28125 -10.15625 
Q 37.109375 -5.46875 34.375 -1.5625 
Q 42.96875 -1.953125 45.109375 -1.171875 
Q 47.265625 -0.390625 47.265625 4.296875 
L 47.265625 25.390625 
L 21.484375 25.390625 
Q 21.875 32.03125 21.875 40.234375 
Q 21.875 48.4375 21.484375 53.90625 
L 79.6875 53.90625 
z
M 49.21875 82.421875 
Q 53.125 76.171875 56.640625 68.75 
L 78.125 68.75 
Q 87.109375 68.75 93.75 69.140625 
L 93.75 61.71875 
Q 87.109375 62.109375 78.125 62.109375 
L 22.265625 62.109375 
Q 14.84375 62.109375 6.640625 61.71875 
L 6.640625 69.140625 
Q 14.453125 68.75 22.265625 68.75 
L 47.265625 68.75 
Q 46.09375 72.265625 41.796875 79.296875 
Q 46.484375 80.859375 49.21875 82.421875 
z
M 71.484375 32.03125 
L 71.484375 47.265625 
L 29.6875 47.265625 
L 29.6875 32.03125 
z
M 36.328125 16.796875 
Q 29.296875 9.765625 13.28125 -5.078125 
Q 10.15625 -1.5625 7.03125 1.171875 
Q 23.4375 13.28125 30.078125 23.046875 
Q 32.8125 19.53125 36.328125 16.796875 
z
M 68.75 21.484375 
Q 76.953125 15.234375 83 10.34375 
Q 89.0625 5.46875 92.1875 2.34375 
Q 89.0625 -0.78125 85.9375 -4.296875 
Q 80.46875 1.953125 63.671875 15.234375 
Q 66.015625 17.96875 68.75 21.484375 
z
" id="SimHei-20140"/>
       </defs>
       <use xlink:href="#SimHei-21335"/>
       <use x="100" xlink:href="#SimHei-20140"/>
      </g>
     </g>
    </g>
    <g id="xtick_9">
     <g id="line2d_17">
      <path clip-path="url(#pd603db8c78)" d="M 460.909375 355.688125 
L 460.909375 29.528125 
" style="fill:none;stroke:#b0b0b0;stroke-linecap:square;stroke-width:0.8;"/>
     </g>
     <g id="line2d_18">
      <g>
       <use style="stroke:#000000;stroke-width:0.8;" x="460.909375" xlink:href="#m8bad828aff" y="355.688125"/>
      </g>
     </g>
     <g id="text_9">
      <!-- 盐城 -->
      <g transform="translate(450.909375 370.617813)scale(0.1 -0.1)">
       <defs>
        <path d="M 83.984375 27.734375 
Q 83.59375 19.140625 83.59375 13.28125 
L 83.59375 -0.390625 
Q 91.015625 -0.390625 96.484375 0 
L 96.484375 -7.421875 
Q 84.375 -6.640625 76.953125 -6.640625 
L 24.609375 -6.640625 
Q 13.28125 -6.640625 5.078125 -7.421875 
L 5.078125 0 
Q 9.765625 -0.390625 17.1875 -0.390625 
L 17.1875 13.28125 
Q 17.1875 20.703125 16.796875 27.734375 
L 83.984375 27.734375 
z
M 25.78125 65.625 
Q 25.78125 75.390625 25.390625 80.859375 
L 33.984375 80.859375 
Q 33.203125 77.734375 33.203125 65.625 
L 36.328125 65.625 
Q 42.578125 65.625 50 66.015625 
L 50 58.984375 
Q 42.578125 59.375 36.71875 59.375 
L 33.203125 59.375 
L 33.203125 44.140625 
Q 43.359375 45.703125 50.390625 47.65625 
Q 49.21875 44.53125 49.609375 40.234375 
Q 42.1875 39.0625 35.34375 37.6875 
Q 28.515625 36.328125 20.890625 34.375 
Q 13.28125 32.421875 9.375 30.46875 
Q 7.8125 35.15625 5.46875 39.453125 
Q 17.1875 40.625 25.78125 42.578125 
L 25.78125 59.375 
L 20.703125 59.375 
Q 14.453125 59.375 8.203125 58.984375 
L 8.203125 66.015625 
Q 16.015625 65.625 20.703125 65.625 
z
M 69.140625 81.25 
Q 68.359375 76.5625 68.359375 67.96875 
L 68.359375 48.046875 
Q 68.359375 41.015625 68.75 32.8125 
L 60.546875 32.8125 
Q 60.9375 41.796875 60.9375 48.828125 
L 60.9375 69.140625 
Q 60.9375 75.390625 60.546875 81.25 
L 69.140625 81.25 
z
M 37.5 -0.390625 
L 37.5 21.484375 
L 24.609375 21.484375 
L 24.609375 -0.390625 
z
M 76.171875 -0.390625 
L 76.171875 21.484375 
L 63.671875 21.484375 
L 63.671875 -0.390625 
z
M 56.25 -0.390625 
L 56.25 21.484375 
L 44.921875 21.484375 
L 44.921875 -0.390625 
z
M 78.90625 66.40625 
Q 82.03125 62.890625 86.328125 57.8125 
Q 90.625 52.734375 94.140625 47.65625 
Q 90.625 44.921875 87.890625 42.1875 
Q 85.15625 46.484375 81.25 51.5625 
Q 77.34375 56.640625 73.046875 61.328125 
Q 75.78125 64.0625 78.90625 66.40625 
z
" id="SimHei-30416"/>
        <path d="M 81.640625 48.828125 
Q 85.15625 47.265625 90.234375 45.703125 
Q 88.28125 40.234375 86.90625 33.984375 
Q 85.546875 27.734375 83.390625 21.09375 
Q 81.25 14.453125 79.296875 10.9375 
Q 83.203125 3.90625 85.9375 2.34375 
Q 88.671875 0.78125 89.84375 10.9375 
Q 93.359375 7.421875 96.875 5.859375 
Q 95.3125 -0.78125 92.765625 -5.46875 
Q 90.234375 -10.15625 86.515625 -8.203125 
Q 82.8125 -6.25 79.6875 -2.53125 
Q 76.5625 1.171875 74.21875 5.078125 
Q 71.09375 1.171875 66.984375 -2.734375 
Q 62.890625 -6.640625 57.8125 -9.765625 
Q 55.078125 -5.859375 51.5625 -3.515625 
Q 57.8125 -0.390625 62.296875 3.3125 
Q 66.796875 7.03125 70.3125 12.109375 
Q 66.796875 21.484375 65.234375 34.5625 
Q 63.671875 47.65625 63.28125 57.421875 
L 42.96875 57.421875 
L 42.96875 43.359375 
L 59.765625 43.359375 
Q 59.375 37.890625 59.375 30.859375 
L 58.984375 14.84375 
Q 58.984375 7.8125 55.265625 5.65625 
Q 51.5625 3.515625 45.703125 2.34375 
Q 44.921875 7.421875 42.96875 11.328125 
Q 49.609375 11.328125 50.96875 12.5 
Q 52.34375 13.671875 52.34375 16.796875 
L 52.734375 36.71875 
L 42.96875 36.71875 
Q 42.96875 30.859375 42.375 23.625 
Q 41.796875 16.40625 38.46875 8.390625 
Q 35.15625 0.390625 27.734375 -8.203125 
Q 25 -5.859375 20.3125 -3.90625 
Q 28.125 3.90625 31.4375 11.328125 
Q 34.765625 18.75 35.34375 25.578125 
Q 35.9375 32.421875 35.9375 43.75 
Q 35.9375 55.46875 35.546875 64.0625 
L 62.890625 64.0625 
Q 62.890625 71.484375 62.109375 81.640625 
Q 66.40625 80.859375 70.703125 80.859375 
Q 69.53125 74.21875 69.921875 64.0625 
L 75.78125 64.0625 
Q 84.375 64.0625 92.578125 64.453125 
L 92.578125 57.03125 
Q 84.375 57.421875 75.78125 57.421875 
L 70.3125 57.421875 
Q 70.703125 48.828125 71.671875 39.0625 
Q 72.65625 29.296875 75.390625 19.140625 
Q 77.734375 25 79.296875 32.8125 
Q 80.859375 40.625 81.640625 48.828125 
z
M 30.859375 14.453125 
Q 24.609375 12.5 18.15625 10.34375 
Q 11.71875 8.203125 6.640625 5.078125 
Q 5.078125 10.15625 3.515625 14.0625 
Q 7.421875 14.0625 14.84375 16.40625 
L 14.84375 48.046875 
Q 9.375 48.046875 4.6875 47.65625 
L 4.6875 54.6875 
Q 9.375 54.296875 14.84375 54.296875 
L 14.84375 68.359375 
Q 14.84375 72.65625 14.453125 78.515625 
L 22.265625 78.515625 
Q 21.875 73.4375 21.875 68.359375 
L 21.875 54.296875 
Q 26.5625 54.296875 31.25 54.6875 
L 31.25 47.65625 
Q 26.5625 48.046875 21.875 48.046875 
L 21.875 18.75 
Q 26.171875 19.53125 31.25 21.484375 
Q 30.859375 17.578125 30.859375 14.453125 
z
M 81.640625 81.25 
Q 87.5 74.21875 90.234375 69.53125 
Q 85.9375 67.578125 83.59375 65.234375 
Q 80.078125 71.484375 75.390625 77.34375 
Q 78.515625 78.90625 81.640625 81.25 
z
" id="SimHei-22478"/>
       </defs>
       <use xlink:href="#SimHei-30416"/>
       <use x="100" xlink:href="#SimHei-22478"/>
      </g>
     </g>
    </g>
    <g id="text_10">
     <!-- 城市名 -->
     <g transform="translate(244.509375 385.633438)scale(0.12 -0.12)">
      <defs>
       <path d="M 74.21875 65.625 
Q 83.59375 65.625 94.53125 66.015625 
L 94.53125 58.203125 
Q 83.59375 58.59375 74.21875 58.59375 
L 53.90625 58.59375 
L 53.90625 45.3125 
L 83.984375 45.3125 
Q 83.59375 38.28125 83.59375 30.859375 
L 83.59375 11.71875 
Q 83.59375 5.078125 79.09375 2.734375 
Q 74.609375 0.390625 66.40625 -0.390625 
Q 65.625 4.296875 62.890625 8.984375 
Q 71.09375 8.984375 73.234375 9.375 
Q 75.390625 9.765625 75.390625 13.28125 
L 75.390625 38.28125 
L 53.90625 38.28125 
L 53.90625 7.421875 
Q 53.90625 -2.34375 54.296875 -9.375 
L 45.3125 -9.375 
Q 45.703125 -2.34375 45.703125 7.421875 
L 45.703125 38.28125 
L 23.828125 38.28125 
L 23.828125 0 
L 15.234375 0 
Q 15.625 6.25 15.625 14.84375 
L 15.625 29.296875 
Q 15.625 38.28125 15.234375 45.3125 
L 45.703125 45.3125 
L 45.703125 58.59375 
L 25.390625 58.59375 
Q 15.234375 58.59375 5.078125 58.203125 
L 5.078125 66.015625 
Q 15.234375 65.625 25.390625 65.625 
z
M 46.09375 82.421875 
Q 50.78125 77.734375 55.859375 69.921875 
Q 51.5625 67.96875 48.828125 66.015625 
Q 45.3125 72.265625 39.84375 78.125 
Q 42.96875 80.46875 46.09375 82.421875 
z
" id="SimHei-24066"/>
       <path d="M 45.3125 78.125 
Q 43.359375 76.171875 41.984375 74.21875 
Q 40.625 72.265625 38.671875 69.53125 
L 83.59375 69.53125 
Q 78.90625 62.5 70.5 51.75 
Q 62.109375 41.015625 46.484375 31.25 
L 85.9375 31.25 
Q 85.546875 25.390625 85.546875 19.140625 
L 85.546875 3.125 
Q 85.546875 -3.515625 85.9375 -9.765625 
L 77.734375 -9.765625 
L 77.734375 -1.171875 
L 35.15625 -1.171875 
L 35.15625 -10.15625 
L 27.34375 -10.15625 
Q 27.734375 -4.6875 27.734375 2.34375 
L 27.734375 21.875 
Q 14.84375 16.40625 9.765625 14.84375 
Q 8.203125 18.75 4.6875 22.265625 
Q 14.84375 24.21875 27.140625 29.296875 
Q 39.453125 34.375 46.09375 39.453125 
Q 37.5 47.265625 30.859375 51.5625 
Q 33.59375 53.90625 36.328125 57.421875 
Q 48.828125 47.265625 52.734375 44.140625 
Q 62.5 51.5625 70.3125 63.28125 
L 34.765625 63.28125 
Q 23.046875 49.21875 16.40625 44.140625 
Q 14.0625 46.484375 9.375 49.21875 
Q 18.359375 55.078125 24.796875 62.6875 
Q 31.25 70.3125 36.71875 82.03125 
Q 41.796875 79.296875 45.3125 78.125 
z
M 77.734375 5.078125 
L 77.734375 25 
L 35.15625 25 
L 35.15625 5.078125 
z
" id="SimHei-21517"/>
      </defs>
      <use xlink:href="#SimHei-22478"/>
      <use x="100" xlink:href="#SimHei-24066"/>
      <use x="200" xlink:href="#SimHei-21517"/>
     </g>
    </g>
   </g>
   <g id="matplotlib.axis_2">
    <g id="ytick_1">
     <g id="line2d_19">
      <path clip-path="url(#pd603db8c78)" d="M 39.309375 344.980852 
L 485.709375 344.980852 
" style="fill:none;stroke:#b0b0b0;stroke-linecap:square;stroke-width:0.8;"/>
     </g>
     <g id="line2d_20">
      <defs>
       <path d="M 0 0 
L -3.5 0 
" id="m444b4f0c39" style="stroke:#000000;stroke-width:0.8;"/>
      </defs>
      <g>
       <use style="stroke:#000000;stroke-width:0.8;" x="39.309375" xlink:href="#m444b4f0c39" y="344.980852"/>
      </g>
     </g>
     <g id="text_11">
      <!-- 20 -->
      <g transform="translate(22.309375 348.418352)scale(0.1 -0.1)">
       <defs>
        <path d="M 4.6875 3.90625 
Q 5.078125 9.765625 10.15625 14.453125 
Q 15.234375 19.140625 23.046875 29.09375 
Q 30.859375 39.0625 33.203125 44.53125 
Q 35.546875 50 34.953125 53.90625 
Q 34.375 57.8125 31.25 60.34375 
Q 28.125 62.890625 24.015625 62.5 
Q 19.921875 62.109375 16.203125 59.375 
Q 12.5 56.640625 10.546875 51.171875 
L 3.125 52.34375 
Q 6.25 61.328125 11.125 65.421875 
Q 16.015625 69.53125 22.65625 69.921875 
Q 26.5625 70.3125 29.6875 69.71875 
Q 32.8125 69.140625 36.125 66.984375 
Q 39.453125 64.84375 41.59375 60.546875 
Q 43.75 56.25 43.15625 50.1875 
Q 42.578125 44.140625 37.109375 35.734375 
Q 31.640625 27.34375 16.015625 9.375 
L 44.140625 9.375 
L 44.140625 2.34375 
L 4.6875 2.34375 
z
" id="SimHei-50"/>
        <path d="M 3.125 29.296875 
Q 3.90625 50 6.4375 56.046875 
Q 8.984375 62.109375 13.671875 66.015625 
Q 18.359375 69.921875 25.1875 69.921875 
Q 32.03125 69.921875 37.109375 64.25 
Q 42.1875 58.59375 43.75 50 
Q 45.3125 41.40625 44.71875 30.265625 
Q 44.140625 19.140625 40.8125 12.109375 
Q 37.5 5.078125 30.859375 2.34375 
Q 24.21875 -0.390625 17.578125 2.921875 
Q 10.9375 6.25 8.203125 11.71875 
Q 5.46875 17.1875 4.296875 23.234375 
Q 3.125 29.296875 3.90625 50 
z
M 12.890625 52.734375 
Q 10.546875 31.25 12.5 22.84375 
Q 14.453125 14.453125 18.9375 10.9375 
Q 23.4375 7.421875 28.125 9.5625 
Q 32.8125 11.71875 34.953125 18.15625 
Q 37.109375 24.609375 37.109375 32.21875 
Q 37.109375 39.84375 36.515625 46.09375 
Q 35.9375 52.34375 33 57.421875 
Q 30.078125 62.5 25.1875 62.6875 
Q 20.3125 62.890625 16.59375 57.8125 
Q 12.890625 52.734375 10.546875 31.25 
z
" id="SimHei-48"/>
       </defs>
       <use xlink:href="#SimHei-50"/>
       <use x="50" xlink:href="#SimHei-48"/>
      </g>
     </g>
    </g>
    <g id="ytick_2">
     <g id="line2d_21">
      <path clip-path="url(#pd603db8c78)" d="M 39.309375 303.799034 
L 485.709375 303.799034 
" style="fill:none;stroke:#b0b0b0;stroke-linecap:square;stroke-width:0.8;"/>
     </g>
     <g id="line2d_22">
      <g>
       <use style="stroke:#000000;stroke-width:0.8;" x="39.309375" xlink:href="#m444b4f0c39" y="303.799034"/>
      </g>
     </g>
     <g id="text_12">
      <!-- 30 -->
      <g transform="translate(22.309375 307.236534)scale(0.1 -0.1)">
       <defs>
        <path d="M 3.90625 19.140625 
L 10.9375 20.3125 
Q 12.5 15.234375 16.015625 11.90625 
Q 19.53125 8.59375 24.796875 8.78125 
Q 30.078125 8.984375 33.203125 13.078125 
Q 36.328125 17.1875 35.9375 22.453125 
Q 35.546875 27.734375 31.828125 30.65625 
Q 28.125 33.59375 19.921875 34.765625 
L 19.921875 39.84375 
Q 28.125 40.625 31.828125 44.140625 
Q 35.546875 47.65625 35.15625 53.3125 
Q 34.765625 58.984375 30.078125 61.515625 
Q 25.390625 64.0625 20.109375 62.109375 
Q 14.84375 60.15625 11.71875 51.171875 
L 4.6875 52.34375 
Q 7.03125 59.375 11.125 64.0625 
Q 15.234375 68.75 22.265625 69.53125 
Q 29.296875 70.3125 34.5625 67.765625 
Q 39.84375 65.234375 41.984375 59.953125 
Q 44.140625 54.6875 42.578125 48.4375 
Q 41.015625 42.1875 33.59375 37.5 
Q 39.0625 35.15625 41.984375 30.46875 
Q 44.921875 25.78125 43.9375 18.15625 
Q 42.96875 10.546875 37.109375 5.859375 
Q 31.25 1.171875 23.828125 1.359375 
Q 16.40625 1.5625 10.9375 6.046875 
Q 5.46875 10.546875 3.90625 19.140625 
z
" id="SimHei-51"/>
       </defs>
       <use xlink:href="#SimHei-51"/>
       <use x="50" xlink:href="#SimHei-48"/>
      </g>
     </g>
    </g>
    <g id="ytick_3">
     <g id="line2d_23">
      <path clip-path="url(#pd603db8c78)" d="M 39.309375 262.617216 
L 485.709375 262.617216 
" style="fill:none;stroke:#b0b0b0;stroke-linecap:square;stroke-width:0.8;"/>
     </g>
     <g id="line2d_24">
      <g>
       <use style="stroke:#000000;stroke-width:0.8;" x="39.309375" xlink:href="#m444b4f0c39" y="262.617216"/>
      </g>
     </g>
     <g id="text_13">
      <!-- 40 -->
      <g transform="translate(22.309375 266.054716)scale(0.1 -0.1)">
       <defs>
        <path d="M 31.25 17.1875 
L 1.171875 17.1875 
L 1.171875 23.828125 
L 32.8125 69.53125 
L 38.671875 69.53125 
L 38.671875 23.828125 
L 48.046875 23.828125 
L 48.046875 17.1875 
L 38.671875 17.1875 
L 38.671875 2.34375 
L 31.25 2.34375 
z
M 31.25 23.828125 
L 31.25 54.6875 
L 9.375 23.828125 
z
" id="SimHei-52"/>
       </defs>
       <use xlink:href="#SimHei-52"/>
       <use x="50" xlink:href="#SimHei-48"/>
      </g>
     </g>
    </g>
    <g id="ytick_4">
     <g id="line2d_25">
      <path clip-path="url(#pd603db8c78)" d="M 39.309375 221.435398 
L 485.709375 221.435398 
" style="fill:none;stroke:#b0b0b0;stroke-linecap:square;stroke-width:0.8;"/>
     </g>
     <g id="line2d_26">
      <g>
       <use style="stroke:#000000;stroke-width:0.8;" x="39.309375" xlink:href="#m444b4f0c39" y="221.435398"/>
      </g>
     </g>
     <g id="text_14">
      <!-- 50 -->
      <g transform="translate(22.309375 224.872898)scale(0.1 -0.1)">
       <defs>
        <path d="M 8.59375 20.703125 
Q 11.328125 10.15625 17.96875 8.984375 
Q 24.609375 7.8125 28.703125 10.34375 
Q 32.8125 12.890625 34.5625 16.984375 
Q 36.328125 21.09375 36.125 26.171875 
Q 35.9375 31.25 33.390625 34.765625 
Q 30.859375 38.28125 26.953125 39.453125 
Q 23.046875 40.625 18.15625 39.453125 
Q 13.28125 38.28125 10.15625 33.984375 
L 3.515625 34.765625 
Q 4.296875 37.109375 10.9375 68.359375 
L 41.796875 68.359375 
L 41.796875 61.328125 
L 16.796875 61.328125 
Q 14.84375 50.78125 12.890625 44.53125 
Q 18.75 47.265625 23.828125 47.0625 
Q 28.90625 46.875 33.59375 44.71875 
Q 38.28125 42.578125 40.421875 38.859375 
Q 42.578125 35.15625 43.546875 31.4375 
Q 44.53125 27.734375 44.328125 23.4375 
Q 44.140625 19.140625 42.578125 14.640625 
Q 41.015625 10.15625 37.890625 7.21875 
Q 34.765625 4.296875 30.265625 2.53125 
Q 25.78125 0.78125 19.921875 1.171875 
Q 14.0625 1.5625 8.78125 5.46875 
Q 3.515625 9.375 1.5625 18.75 
z
" id="SimHei-53"/>
       </defs>
       <use xlink:href="#SimHei-53"/>
       <use x="50" xlink:href="#SimHei-48"/>
      </g>
     </g>
    </g>
    <g id="ytick_5">
     <g id="line2d_27">
      <path clip-path="url(#pd603db8c78)" d="M 39.309375 180.25358 
L 485.709375 180.25358 
" style="fill:none;stroke:#b0b0b0;stroke-linecap:square;stroke-width:0.8;"/>
     </g>
     <g id="line2d_28">
      <g>
       <use style="stroke:#000000;stroke-width:0.8;" x="39.309375" xlink:href="#m444b4f0c39" y="180.25358"/>
      </g>
     </g>
     <g id="text_15">
      <!-- 60 -->
      <g transform="translate(22.309375 183.69108)scale(0.1 -0.1)">
       <defs>
        <path d="M 3.515625 19.53125 
Q 4.296875 30.859375 6.046875 34.765625 
Q 7.8125 38.671875 11.328125 44.53125 
L 27.34375 69.53125 
L 36.328125 69.53125 
L 19.921875 43.75 
Q 30.46875 46.484375 36.71875 42.96875 
Q 42.96875 39.453125 45.109375 34.953125 
Q 47.265625 30.46875 47.453125 25.1875 
Q 47.65625 19.921875 45.890625 14.84375 
Q 44.140625 9.765625 39.640625 5.65625 
Q 35.15625 1.5625 27.140625 1.171875 
Q 19.140625 0.78125 13.46875 4.09375 
Q 7.8125 7.421875 5.65625 13.46875 
Q 3.515625 19.53125 4.296875 30.859375 
z
M 12.5 16.015625 
Q 19.53125 8.59375 25.390625 8.203125 
Q 31.25 7.8125 35.15625 12.109375 
Q 39.0625 16.40625 39.0625 24.609375 
Q 39.0625 32.8125 34.171875 35.9375 
Q 29.296875 39.0625 23.234375 38.28125 
Q 17.1875 37.5 14.453125 32.421875 
Q 11.71875 27.34375 12.109375 21.671875 
Q 12.5 16.015625 19.53125 8.59375 
z
" id="SimHei-54"/>
       </defs>
       <use xlink:href="#SimHei-54"/>
       <use x="50" xlink:href="#SimHei-48"/>
      </g>
     </g>
    </g>
    <g id="ytick_6">
     <g id="line2d_29">
      <path clip-path="url(#pd603db8c78)" d="M 39.309375 139.071761 
L 485.709375 139.071761 
" style="fill:none;stroke:#b0b0b0;stroke-linecap:square;stroke-width:0.8;"/>
     </g>
     <g id="line2d_30">
      <g>
       <use style="stroke:#000000;stroke-width:0.8;" x="39.309375" xlink:href="#m444b4f0c39" y="139.071761"/>
      </g>
     </g>
     <g id="text_16">
      <!-- 70 -->
      <g transform="translate(22.309375 142.509261)scale(0.1 -0.1)">
       <defs>
        <path d="M 13.28125 2.34375 
Q 20.3125 32.03125 37.890625 61.328125 
L 4.296875 61.328125 
L 4.296875 68.359375 
L 46.09375 68.359375 
L 46.09375 61.71875 
Q 27.734375 32.03125 21.875 2.34375 
L 13.28125 2.34375 
z
" id="SimHei-55"/>
       </defs>
       <use xlink:href="#SimHei-55"/>
       <use x="50" xlink:href="#SimHei-48"/>
      </g>
     </g>
    </g>
    <g id="ytick_7">
     <g id="line2d_31">
      <path clip-path="url(#pd603db8c78)" d="M 39.309375 97.889943 
L 485.709375 97.889943 
" style="fill:none;stroke:#b0b0b0;stroke-linecap:square;stroke-width:0.8;"/>
     </g>
     <g id="line2d_32">
      <g>
       <use style="stroke:#000000;stroke-width:0.8;" x="39.309375" xlink:href="#m444b4f0c39" y="97.889943"/>
      </g>
     </g>
     <g id="text_17">
      <!-- 80 -->
      <g transform="translate(22.309375 101.327443)scale(0.1 -0.1)">
       <defs>
        <path d="M 2.734375 16.796875 
Q 2.734375 26.171875 5.078125 30.65625 
Q 7.421875 35.15625 12.890625 37.890625 
Q 8.203125 40.625 6.640625 43.9375 
Q 5.078125 47.265625 4.875 51.5625 
Q 4.6875 55.859375 6.046875 58.984375 
Q 7.421875 62.109375 10.15625 64.84375 
Q 12.890625 67.578125 16.203125 68.546875 
Q 19.53125 69.53125 23.4375 69.53125 
Q 27.34375 69.53125 30.46875 68.75 
Q 33.59375 67.96875 37.109375 65.421875 
Q 40.625 62.890625 42.1875 58.203125 
Q 43.75 53.515625 41.984375 47.265625 
Q 40.234375 41.015625 32.8125 37.5 
Q 39.453125 35.546875 42.1875 31.4375 
Q 44.921875 27.34375 44.921875 21.484375 
Q 44.921875 15.625 43.15625 12.109375 
Q 41.40625 8.59375 39.25 6.25 
Q 37.109375 3.90625 33.390625 2.53125 
Q 29.6875 1.171875 24.015625 1.171875 
Q 18.359375 1.171875 14.25 2.53125 
Q 10.15625 3.90625 7.421875 6.640625 
Q 4.6875 9.375 3.703125 13.078125 
Q 2.734375 16.796875 2.734375 26.171875 
z
M 10.9375 26.5625 
Q 10.546875 17.1875 12.296875 13.671875 
Q 14.0625 10.15625 18.75 9.171875 
Q 23.4375 8.203125 28.515625 9.375 
Q 33.59375 10.546875 35.546875 14.84375 
Q 37.5 19.140625 36.90625 23.4375 
Q 36.328125 27.734375 32.03125 30.65625 
Q 27.734375 33.59375 22.65625 33.203125 
Q 17.578125 32.8125 14.25 29.6875 
Q 10.9375 26.5625 10.546875 17.1875 
z
M 12.109375 56.25 
Q 12.109375 48.4375 14.84375 44.921875 
Q 17.578125 41.40625 23.4375 41.40625 
Q 29.296875 41.40625 32.21875 44.921875 
Q 35.15625 48.4375 34.953125 53.3125 
Q 34.765625 58.203125 31.4375 60.546875 
Q 28.125 62.890625 22.453125 62.5 
Q 16.796875 62.109375 14.453125 59.171875 
Q 12.109375 56.25 12.109375 48.4375 
z
" id="SimHei-56"/>
       </defs>
       <use xlink:href="#SimHei-56"/>
       <use x="50" xlink:href="#SimHei-48"/>
      </g>
     </g>
    </g>
    <g id="ytick_8">
     <g id="line2d_33">
      <path clip-path="url(#pd603db8c78)" d="M 39.309375 56.708125 
L 485.709375 56.708125 
" style="fill:none;stroke:#b0b0b0;stroke-linecap:square;stroke-width:0.8;"/>
     </g>
     <g id="line2d_34">
      <g>
       <use style="stroke:#000000;stroke-width:0.8;" x="39.309375" xlink:href="#m444b4f0c39" y="56.708125"/>
      </g>
     </g>
     <g id="text_18">
      <!-- 90 -->
      <g transform="translate(22.309375 60.145625)scale(0.1 -0.1)">
       <defs>
        <path d="M 12.5 1.171875 
Q 21.09375 15.625 26.5625 27.34375 
Q 16.796875 25.78125 10.34375 29.875 
Q 3.90625 33.984375 2.53125 41.015625 
Q 1.171875 48.046875 2.734375 53.703125 
Q 4.296875 59.375 7.609375 63.078125 
Q 10.9375 66.796875 15.625 68.359375 
Q 20.3125 69.921875 24.015625 69.921875 
Q 27.734375 69.921875 31.640625 68.359375 
Q 35.546875 66.796875 38.671875 63.671875 
Q 41.796875 60.546875 42.96875 57.21875 
Q 44.140625 53.90625 44.140625 48.625 
Q 44.140625 43.359375 40.234375 35.15625 
Q 36.328125 26.953125 21.09375 1.171875 
z
M 9.765625 50 
Q 10.9375 39.84375 14.640625 36.515625 
Q 18.359375 33.203125 22.65625 33.59375 
Q 26.953125 33.984375 29.484375 35.9375 
Q 32.03125 37.890625 34.375 42.578125 
Q 35.9375 48.4375 35.15625 52.53125 
Q 34.375 56.640625 31.046875 59.375 
Q 27.734375 62.109375 23.828125 62.109375 
Q 21.484375 62.5 17.765625 60.9375 
Q 14.0625 59.375 11.90625 54.6875 
Q 9.765625 50 10.9375 39.84375 
z
" id="SimHei-57"/>
       </defs>
       <use xlink:href="#SimHei-57"/>
       <use x="50" xlink:href="#SimHei-48"/>
      </g>
     </g>
    </g>
    <g id="text_19">
     <!-- PM2.5浓度 -->
     <g transform="translate(16.809375 219.608125)rotate(-90)scale(0.12 -0.12)">
      <defs>
       <path d="M 46.09375 48.4375 
Q 46.09375 39.0625 40.625 33.59375 
Q 35.15625 28.125 25.390625 28.125 
L 14.0625 28.125 
L 14.0625 1.953125 
L 5.078125 1.953125 
L 5.078125 68.75 
L 25.390625 68.75 
Q 35.15625 68.75 40.625 63.28125 
Q 46.09375 57.8125 46.09375 48.4375 
z
M 37.109375 48.4375 
Q 37.109375 55.859375 33.59375 58.59375 
Q 30.078125 61.328125 23.046875 61.328125 
L 14.0625 61.328125 
L 14.0625 35.546875 
L 23.046875 35.546875 
Q 30.078125 35.546875 33.59375 38.28125 
Q 37.109375 41.015625 37.109375 48.4375 
z
" id="SimHei-80"/>
       <path d="M 45.703125 1.953125 
L 37.890625 1.953125 
L 37.890625 49.609375 
L 37.109375 49.609375 
L 27.734375 1.953125 
L 21.484375 1.953125 
L 12.109375 49.609375 
L 11.328125 49.609375 
L 11.328125 1.953125 
L 3.515625 1.953125 
L 3.515625 68.75 
L 15.625 68.75 
L 24.21875 24.609375 
L 25 24.609375 
L 33.59375 68.75 
L 45.703125 68.75 
z
" id="SimHei-77"/>
       <path d="M 16.796875 1.953125 
L 7.8125 1.953125 
L 7.8125 10.546875 
L 16.796875 10.546875 
z
" id="SimHei-46"/>
       <path d="M 90.234375 35.15625 
Q 87.5 33.59375 83.203125 30.265625 
Q 78.90625 26.953125 73.828125 22.265625 
Q 76.953125 16.015625 84.171875 9.375 
Q 91.40625 2.734375 96.09375 1.5625 
Q 91.796875 -2.34375 89.84375 -5.859375 
Q 78.515625 0.78125 70.3125 13.46875 
Q 62.109375 26.171875 57.03125 44.140625 
Q 55.46875 41.015625 51.953125 34.765625 
L 51.953125 4.296875 
Q 56.25 7.8125 61.71875 13.28125 
Q 64.453125 8.203125 66.015625 5.859375 
Q 60.9375 2.34375 55.46875 -2.34375 
Q 50 -7.03125 46.875 -9.765625 
Q 44.53125 -5.859375 42.1875 -3.515625 
Q 44.53125 -1.171875 44.921875 3.125 
L 44.921875 25.390625 
Q 39.84375 18.359375 31.25 10.9375 
Q 28.125 14.0625 24.21875 16.015625 
Q 30.859375 20.703125 36.71875 26.953125 
Q 42.578125 33.59375 47.0625 41.015625 
Q 51.5625 48.4375 55.078125 61.71875 
L 39.0625 61.71875 
L 39.0625 50.390625 
L 30.859375 50.390625 
Q 31.640625 54.6875 30.859375 67.96875 
L 56.25 67.96875 
Q 57.8125 78.125 57.421875 82.03125 
Q 62.5 80.859375 67.1875 80.46875 
Q 66.015625 77.34375 64.453125 67.96875 
L 90.234375 67.96875 
Q 89.84375 55.46875 90.234375 50.78125 
L 82.421875 50.78125 
L 82.421875 61.71875 
L 62.890625 61.71875 
Q 62.109375 58.203125 60.9375 55.078125 
Q 65.625 37.890625 70.703125 28.515625 
Q 77.734375 33.984375 83.59375 42.1875 
Q 86.71875 38.28125 90.234375 35.15625 
z
M 3.90625 -3.125 
Q 7.03125 1.171875 11.328125 10.546875 
Q 15.625 19.921875 18.359375 30.46875 
Q 22.65625 27.34375 25.78125 26.171875 
Q 21.484375 16.40625 18.75 8.203125 
Q 16.015625 0 13.28125 -7.03125 
Q 8.59375 -3.90625 3.90625 -3.125 
z
M 21.875 38.671875 
Q 14.453125 44.140625 4.6875 48.046875 
Q 6.25 51.5625 8.203125 55.46875 
Q 19.140625 50.390625 26.171875 45.703125 
Q 23.4375 41.40625 21.875 38.671875 
z
M 24.21875 61.328125 
Q 18.359375 67.1875 9.375 73.046875 
Q 11.328125 75.78125 14.0625 79.296875 
Q 24.21875 72.265625 29.296875 67.578125 
Q 25.78125 64.0625 24.21875 61.328125 
z
" id="SimHei-27987"/>
       <path d="M 27.34375 26.171875 
Q 38.28125 25.78125 44.921875 25.78125 
L 81.25 25.78125 
Q 77.734375 19.53125 72.65625 13.28125 
Q 67.578125 7.03125 62.890625 3.125 
Q 67.96875 0.78125 77.34375 -0.78125 
Q 86.71875 -2.34375 95.3125 -2.34375 
Q 92.96875 -4.6875 91.015625 -10.15625 
Q 79.6875 -8.59375 71.09375 -6.4375 
Q 62.5 -4.296875 56.640625 -1.5625 
Q 48.4375 -5.078125 40.421875 -7.21875 
Q 32.421875 -9.375 23.828125 -10.546875 
Q 22.65625 -7.421875 19.140625 -3.90625 
Q 26.171875 -3.90625 35.15625 -1.953125 
Q 44.140625 0 50.78125 3.125 
Q 44.140625 8.59375 37.5 19.921875 
L 27.34375 19.53125 
z
M 46.484375 79.296875 
Q 50.78125 80.46875 54.296875 82.03125 
Q 56.640625 77.734375 58.984375 70.703125 
L 73.4375 70.703125 
Q 77.734375 70.703125 89.0625 71.09375 
L 89.0625 64.0625 
Q 78.125 64.453125 72.65625 64.453125 
L 21.484375 64.453125 
Q 21.484375 46.875 21.09375 36.125 
Q 20.703125 25.390625 18.9375 14.84375 
Q 17.1875 4.296875 11.328125 -8.203125 
Q 7.8125 -5.859375 3.90625 -4.6875 
Q 10.15625 6.25 11.90625 16.796875 
Q 13.671875 27.34375 13.859375 43.75 
Q 14.0625 60.15625 13.671875 70.703125 
L 50 70.703125 
Q 48.4375 75.78125 46.484375 79.296875 
z
M 38.671875 51.5625 
Q 38.671875 57.8125 38.28125 61.328125 
L 46.484375 61.328125 
Q 46.09375 58.203125 46.09375 51.5625 
L 67.1875 51.5625 
Q 67.1875 57.8125 66.796875 61.71875 
L 75 61.71875 
Q 74.609375 57.03125 74.609375 51.5625 
Q 83.203125 51.5625 89.453125 51.953125 
L 89.453125 45.3125 
Q 83.59375 45.703125 74.609375 45.703125 
Q 74.609375 35.15625 75 30.46875 
L 38.28125 30.46875 
Q 38.671875 36.71875 38.671875 45.703125 
Q 33.984375 45.703125 25 45.3125 
L 25 51.953125 
Q 33.984375 51.5625 38.671875 51.5625 
z
M 67.1875 36.71875 
L 67.1875 45.703125 
L 46.09375 45.703125 
L 46.09375 36.71875 
z
M 44.921875 19.921875 
Q 50 12.109375 57.03125 6.640625 
Q 62.890625 10.9375 69.140625 19.921875 
L 45.3125 19.921875 
z
" id="SimHei-24230"/>
      </defs>
      <use xlink:href="#SimHei-80"/>
      <use x="50" xlink:href="#SimHei-77"/>
      <use x="100" xlink:href="#SimHei-50"/>
      <use x="150" xlink:href="#SimHei-46"/>
      <use x="200" xlink:href="#SimHei-53"/>
      <use x="250" xlink:href="#SimHei-27987"/>
      <use x="350" xlink:href="#SimHei-24230"/>
     </g>
    </g>
   </g>
   <g id="line2d_35">
    <path clip-path="url(#pd603db8c78)" d="M 64.109375 287.326307 
L 64.109375 316.15358 
" style="fill:none;stroke:#000000;stroke-linecap:square;"/>
   </g>
   <g id="line2d_36">
    <path clip-path="url(#pd603db8c78)" d="M 64.109375 218.346761 
L 64.109375 159.66267 
" style="fill:none;stroke:#000000;stroke-linecap:square;"/>
   </g>
   <g id="line2d_37">
    <path clip-path="url(#pd603db8c78)" d="M 57.909375 316.15358 
L 70.309375 316.15358 
" style="fill:none;stroke:#000000;stroke-linecap:square;"/>
   </g>
   <g id="line2d_38">
    <path clip-path="url(#pd603db8c78)" d="M 57.909375 159.66267 
L 70.309375 159.66267 
" style="fill:none;stroke:#000000;stroke-linecap:square;"/>
   </g>
   <g id="line2d_39"/>
   <g id="line2d_40">
    <path clip-path="url(#pd603db8c78)" d="M 113.709375 309.976307 
L 113.709375 340.86267 
" style="fill:none;stroke:#000000;stroke-linecap:square;"/>
   </g>
   <g id="line2d_41">
    <path clip-path="url(#pd603db8c78)" d="M 113.709375 236.87858 
L 113.709375 159.66267 
" style="fill:none;stroke:#000000;stroke-linecap:square;"/>
   </g>
   <g id="line2d_42">
    <path clip-path="url(#pd603db8c78)" d="M 107.509375 340.86267 
L 119.909375 340.86267 
" style="fill:none;stroke:#000000;stroke-linecap:square;"/>
   </g>
   <g id="line2d_43">
    <path clip-path="url(#pd603db8c78)" d="M 107.509375 159.66267 
L 119.909375 159.66267 
" style="fill:none;stroke:#000000;stroke-linecap:square;"/>
   </g>
   <g id="line2d_44"/>
   <g id="line2d_45">
    <path clip-path="url(#pd603db8c78)" d="M 163.309375 265.705852 
L 163.309375 303.799034 
" style="fill:none;stroke:#000000;stroke-linecap:square;"/>
   </g>
   <g id="line2d_46">
    <path clip-path="url(#pd603db8c78)" d="M 163.309375 149.367216 
L 163.309375 60.826307 
" style="fill:none;stroke:#000000;stroke-linecap:square;"/>
   </g>
   <g id="line2d_47">
    <path clip-path="url(#pd603db8c78)" d="M 157.109375 303.799034 
L 169.509375 303.799034 
" style="fill:none;stroke:#000000;stroke-linecap:square;"/>
   </g>
   <g id="line2d_48">
    <path clip-path="url(#pd603db8c78)" d="M 157.109375 60.826307 
L 169.509375 60.826307 
" style="fill:none;stroke:#000000;stroke-linecap:square;"/>
   </g>
   <g id="line2d_49"/>
   <g id="line2d_50">
    <path clip-path="url(#pd603db8c78)" d="M 212.909375 282.17858 
L 212.909375 303.799034 
" style="fill:none;stroke:#000000;stroke-linecap:square;"/>
   </g>
   <g id="line2d_51">
    <path clip-path="url(#pd603db8c78)" d="M 212.909375 164.810398 
L 212.909375 77.299034 
" style="fill:none;stroke:#000000;stroke-linecap:square;"/>
   </g>
   <g id="line2d_52">
    <path clip-path="url(#pd603db8c78)" d="M 206.709375 303.799034 
L 219.109375 303.799034 
" style="fill:none;stroke:#000000;stroke-linecap:square;"/>
   </g>
   <g id="line2d_53">
    <path clip-path="url(#pd603db8c78)" d="M 206.709375 77.299034 
L 219.109375 77.299034 
" style="fill:none;stroke:#000000;stroke-linecap:square;"/>
   </g>
   <g id="line2d_54"/>
   <g id="line2d_55">
    <path clip-path="url(#pd603db8c78)" d="M 262.509375 287.326307 
L 262.509375 312.035398 
" style="fill:none;stroke:#000000;stroke-linecap:square;"/>
   </g>
   <g id="line2d_56">
    <path clip-path="url(#pd603db8c78)" d="M 262.509375 214.22858 
L 262.509375 155.544489 
" style="fill:none;stroke:#000000;stroke-linecap:square;"/>
   </g>
   <g id="line2d_57">
    <path clip-path="url(#pd603db8c78)" d="M 256.309375 312.035398 
L 268.709375 312.035398 
" style="fill:none;stroke:#000000;stroke-linecap:square;"/>
   </g>
   <g id="line2d_58">
    <path clip-path="url(#pd603db8c78)" d="M 256.309375 155.544489 
L 268.709375 155.544489 
" style="fill:none;stroke:#000000;stroke-linecap:square;"/>
   </g>
   <g id="line2d_59"/>
   <g id="line2d_60">
    <path clip-path="url(#pd603db8c78)" d="M 312.109375 273.942216 
L 312.109375 312.035398 
" style="fill:none;stroke:#000000;stroke-linecap:square;"/>
   </g>
   <g id="line2d_61">
    <path clip-path="url(#pd603db8c78)" d="M 312.109375 173.046761 
L 312.109375 69.06267 
" style="fill:none;stroke:#000000;stroke-linecap:square;"/>
   </g>
   <g id="line2d_62">
    <path clip-path="url(#pd603db8c78)" d="M 305.909375 312.035398 
L 318.309375 312.035398 
" style="fill:none;stroke:#000000;stroke-linecap:square;"/>
   </g>
   <g id="line2d_63">
    <path clip-path="url(#pd603db8c78)" d="M 305.909375 69.06267 
L 318.309375 69.06267 
" style="fill:none;stroke:#000000;stroke-linecap:square;"/>
   </g>
   <g id="line2d_64"/>
   <g id="line2d_65">
    <path clip-path="url(#pd603db8c78)" d="M 361.709375 256.439943 
L 361.709375 295.56267 
" style="fill:none;stroke:#000000;stroke-linecap:square;"/>
   </g>
   <g id="line2d_66">
    <path clip-path="url(#pd603db8c78)" d="M 361.709375 140.101307 
L 361.709375 44.35358 
" style="fill:none;stroke:#000000;stroke-linecap:square;"/>
   </g>
   <g id="line2d_67">
    <path clip-path="url(#pd603db8c78)" d="M 355.509375 295.56267 
L 367.909375 295.56267 
" style="fill:none;stroke:#000000;stroke-linecap:square;"/>
   </g>
   <g id="line2d_68">
    <path clip-path="url(#pd603db8c78)" d="M 355.509375 44.35358 
L 367.909375 44.35358 
" style="fill:none;stroke:#000000;stroke-linecap:square;"/>
   </g>
   <g id="line2d_69"/>
   <g id="line2d_70">
    <path clip-path="url(#pd603db8c78)" d="M 411.309375 295.56267 
L 411.309375 340.86267 
" style="fill:none;stroke:#000000;stroke-linecap:square;"/>
   </g>
   <g id="line2d_71">
    <path clip-path="url(#pd603db8c78)" d="M 411.309375 188.489943 
L 411.309375 106.126307 
" style="fill:none;stroke:#000000;stroke-linecap:square;"/>
   </g>
   <g id="line2d_72">
    <path clip-path="url(#pd603db8c78)" d="M 405.109375 340.86267 
L 417.509375 340.86267 
" style="fill:none;stroke:#000000;stroke-linecap:square;"/>
   </g>
   <g id="line2d_73">
    <path clip-path="url(#pd603db8c78)" d="M 405.109375 106.126307 
L 417.509375 106.126307 
" style="fill:none;stroke:#000000;stroke-linecap:square;"/>
   </g>
   <g id="line2d_74"/>
   <g id="line2d_75">
    <path clip-path="url(#pd603db8c78)" d="M 460.909375 287.326307 
L 460.909375 328.508125 
" style="fill:none;stroke:#000000;stroke-linecap:square;"/>
   </g>
   <g id="line2d_76">
    <path clip-path="url(#pd603db8c78)" d="M 460.909375 186.430852 
L 460.909375 106.126307 
" style="fill:none;stroke:#000000;stroke-linecap:square;"/>
   </g>
   <g id="line2d_77">
    <path clip-path="url(#pd603db8c78)" d="M 454.709375 328.508125 
L 467.109375 328.508125 
" style="fill:none;stroke:#000000;stroke-linecap:square;"/>
   </g>
   <g id="line2d_78">
    <path clip-path="url(#pd603db8c78)" d="M 454.709375 106.126307 
L 467.109375 106.126307 
" style="fill:none;stroke:#000000;stroke-linecap:square;"/>
   </g>
   <g id="line2d_79"/>
   <g id="patch_3">
    <path clip-path="url(#pd603db8c78)" d="M 51.709375 287.326307 
L 76.509375 287.326307 
L 76.509375 218.346761 
L 51.709375 218.346761 
L 51.709375 287.326307 
z
" style="fill:#1f77b4;stroke:#000000;stroke-linejoin:miter;"/>
   </g>
   <g id="patch_4">
    <path clip-path="url(#pd603db8c78)" d="M 101.309375 309.976307 
L 126.109375 309.976307 
L 126.109375 236.87858 
L 101.309375 236.87858 
L 101.309375 309.976307 
z
" style="fill:#1f77b4;stroke:#000000;stroke-linejoin:miter;"/>
   </g>
   <g id="patch_5">
    <path clip-path="url(#pd603db8c78)" d="M 150.909375 265.705852 
L 175.709375 265.705852 
L 175.709375 149.367216 
L 150.909375 149.367216 
L 150.909375 265.705852 
z
" style="fill:#1f77b4;stroke:#000000;stroke-linejoin:miter;"/>
   </g>
   <g id="patch_6">
    <path clip-path="url(#pd603db8c78)" d="M 200.509375 282.17858 
L 225.309375 282.17858 
L 225.309375 164.810398 
L 200.509375 164.810398 
L 200.509375 282.17858 
z
" style="fill:#1f77b4;stroke:#000000;stroke-linejoin:miter;"/>
   </g>
   <g id="patch_7">
    <path clip-path="url(#pd603db8c78)" d="M 250.109375 287.326307 
L 274.909375 287.326307 
L 274.909375 214.22858 
L 250.109375 214.22858 
L 250.109375 287.326307 
z
" style="fill:#1f77b4;stroke:#000000;stroke-linejoin:miter;"/>
   </g>
   <g id="patch_8">
    <path clip-path="url(#pd603db8c78)" d="M 299.709375 273.942216 
L 324.509375 273.942216 
L 324.509375 173.046761 
L 299.709375 173.046761 
L 299.709375 273.942216 
z
" style="fill:#1f77b4;stroke:#000000;stroke-linejoin:miter;"/>
   </g>
   <g id="patch_9">
    <path clip-path="url(#pd603db8c78)" d="M 349.309375 256.439943 
L 374.109375 256.439943 
L 374.109375 140.101307 
L 349.309375 140.101307 
L 349.309375 256.439943 
z
" style="fill:#1f77b4;stroke:#000000;stroke-linejoin:miter;"/>
   </g>
   <g id="patch_10">
    <path clip-path="url(#pd603db8c78)" d="M 398.909375 295.56267 
L 423.709375 295.56267 
L 423.709375 188.489943 
L 398.909375 188.489943 
L 398.909375 295.56267 
z
" style="fill:#1f77b4;stroke:#000000;stroke-linejoin:miter;"/>
   </g>
   <g id="patch_11">
    <path clip-path="url(#pd603db8c78)" d="M 448.509375 287.326307 
L 473.309375 287.326307 
L 473.309375 186.430852 
L 448.509375 186.430852 
L 448.509375 287.326307 
z
" style="fill:#1f77b4;stroke:#000000;stroke-linejoin:miter;"/>
   </g>
   <g id="line2d_80">
    <path clip-path="url(#pd603db8c78)" d="M 51.709375 256.439943 
L 76.509375 256.439943 
" style="fill:none;stroke:#ff7f0e;stroke-linecap:square;"/>
   </g>
   <g id="line2d_81">
    <path clip-path="url(#pd603db8c78)" d="M 101.309375 270.85358 
L 126.109375 270.85358 
" style="fill:none;stroke:#ff7f0e;stroke-linecap:square;"/>
   </g>
   <g id="line2d_82">
    <path clip-path="url(#pd603db8c78)" d="M 150.909375 202.90358 
L 175.709375 202.90358 
" style="fill:none;stroke:#ff7f0e;stroke-linecap:square;"/>
   </g>
   <g id="line2d_83">
    <path clip-path="url(#pd603db8c78)" d="M 200.509375 211.139943 
L 225.309375 211.139943 
" style="fill:none;stroke:#ff7f0e;stroke-linecap:square;"/>
   </g>
   <g id="line2d_84">
    <path clip-path="url(#pd603db8c78)" d="M 250.109375 242.026307 
L 274.909375 242.026307 
" style="fill:none;stroke:#ff7f0e;stroke-linecap:square;"/>
   </g>
   <g id="line2d_85">
    <path clip-path="url(#pd603db8c78)" d="M 299.709375 227.61267 
L 324.509375 227.61267 
" style="fill:none;stroke:#ff7f0e;stroke-linecap:square;"/>
   </g>
   <g id="line2d_86">
    <path clip-path="url(#pd603db8c78)" d="M 349.309375 225.55358 
L 374.109375 225.55358 
" style="fill:none;stroke:#ff7f0e;stroke-linecap:square;"/>
   </g>
   <g id="line2d_87">
    <path clip-path="url(#pd603db8c78)" d="M 398.909375 260.558125 
L 423.709375 260.558125 
" style="fill:none;stroke:#ff7f0e;stroke-linecap:square;"/>
   </g>
   <g id="line2d_88">
    <path clip-path="url(#pd603db8c78)" d="M 448.509375 248.20358 
L 473.309375 248.20358 
" style="fill:none;stroke:#ff7f0e;stroke-linecap:square;"/>
   </g>
   <g id="patch_12">
    <path d="M 39.309375 355.688125 
L 39.309375 29.528125 
" style="fill:none;stroke:#000000;stroke-linecap:square;stroke-linejoin:miter;stroke-width:0.8;"/>
   </g>
   <g id="patch_13">
    <path d="M 485.709375 355.688125 
L 485.709375 29.528125 
" style="fill:none;stroke:#000000;stroke-linecap:square;stroke-linejoin:miter;stroke-width:0.8;"/>
   </g>
   <g id="patch_14">
    <path d="M 39.309375 355.688125 
L 485.709375 355.688125 
" style="fill:none;stroke:#000000;stroke-linecap:square;stroke-linejoin:miter;stroke-width:0.8;"/>
   </g>
   <g id="patch_15">
    <path d="M 39.309375 29.528125 
L 485.709375 29.528125 
" style="fill:none;stroke:#000000;stroke-linecap:square;stroke-linejoin:miter;stroke-width:0.8;"/>
   </g>
   <g id="text_20">
    <!-- 9个城市不同月份的PM2.5浓度箱线图 -->
    <g transform="translate(102.509375 23.528125)scale(0.2 -0.2)">
     <defs>
      <path d="M 53.515625 75.390625 
Q 69.921875 51.171875 96.09375 43.359375 
Q 92.1875 38.671875 90.234375 34.375 
Q 64.84375 45.3125 49.21875 69.140625 
Q 34.765625 46.09375 10.546875 33.203125 
Q 8.59375 36.71875 3.90625 40.625 
Q 22.65625 48.4375 33 60.546875 
Q 43.359375 72.65625 46.875 82.421875 
Q 51.5625 80.46875 56.25 78.90625 
Q 54.6875 76.953125 53.515625 75.390625 
z
M 45.703125 36.71875 
Q 45.703125 42.96875 44.921875 52.734375 
L 53.90625 52.734375 
Q 53.515625 46.09375 53.515625 36.328125 
L 53.515625 8.59375 
Q 53.515625 -0.390625 53.90625 -9.765625 
L 45.3125 -9.765625 
Q 45.703125 0 45.703125 8.203125 
z
" id="SimHei-20010"/>
      <path d="M 93.359375 69.53125 
Q 86.328125 69.921875 81.25 69.921875 
L 58.203125 69.921875 
Q 55.46875 64.453125 51.5625 57.8125 
L 51.5625 8.984375 
Q 51.5625 1.171875 51.953125 -8.59375 
L 43.359375 -8.59375 
Q 43.75 0.78125 43.75 8.984375 
L 43.75 47.265625 
Q 31.640625 30.46875 10.9375 16.40625 
Q 7.8125 21.09375 5.078125 23.046875 
Q 12.890625 26.5625 25.78125 38.078125 
Q 38.671875 49.609375 49.609375 69.921875 
L 23.828125 69.921875 
Q 16.40625 69.921875 8.203125 69.53125 
L 8.203125 77.34375 
Q 19.921875 76.953125 26.171875 76.953125 
L 80.859375 76.953125 
Q 85.9375 76.953125 93.359375 77.34375 
z
M 85.15625 17.578125 
Q 77.734375 26.953125 58.59375 46.484375 
Q 61.71875 49.21875 63.671875 51.953125 
Q 73.046875 43.359375 79.6875 36.90625 
Q 86.328125 30.46875 92.1875 24.21875 
Q 88.28125 21.09375 85.15625 17.578125 
z
" id="SimHei-19981"/>
      <path d="M 91.015625 76.953125 
Q 90.234375 71.09375 90.234375 62.109375 
L 90.234375 -0.78125 
Q 90.234375 -6.25 86.328125 -7.609375 
Q 82.421875 -8.984375 73.828125 -9.765625 
Q 73.828125 -6.25 70.703125 -0.78125 
Q 76.953125 -0.78125 79.6875 -0.1875 
Q 82.421875 0.390625 82.421875 3.125 
L 82.421875 69.53125 
L 17.96875 69.53125 
L 17.96875 -9.375 
L 8.984375 -9.375 
Q 9.375 -3.90625 9.765625 3.125 
L 9.765625 62.109375 
Q 9.765625 71.484375 9.375 76.953125 
L 91.015625 76.953125 
z
M 68.359375 39.84375 
Q 67.578125 35.546875 67.578125 26.5625 
Q 67.578125 17.96875 68.359375 11.328125 
L 31.640625 11.328125 
Q 32.03125 18.359375 32.03125 27.34375 
Q 32.03125 36.328125 31.640625 39.84375 
L 68.359375 39.84375 
z
M 64.0625 58.59375 
Q 71.875 58.59375 75.390625 58.984375 
L 75.390625 51.171875 
Q 71.484375 51.5625 63.671875 51.5625 
L 38.28125 51.5625 
Q 28.90625 51.5625 25 51.171875 
L 25 58.984375 
Q 29.296875 58.59375 38.671875 58.59375 
z
M 60.546875 17.96875 
L 60.546875 33.59375 
L 39.453125 33.59375 
L 39.453125 17.96875 
z
" id="SimHei-21516"/>
      <path d="M 82.03125 75.390625 
Q 81.25 66.015625 81.25 58.59375 
L 81.25 3.125 
Q 81.25 -4.296875 77.34375 -5.859375 
Q 73.4375 -7.421875 62.109375 -8.203125 
Q 61.328125 -3.515625 58.59375 0.78125 
Q 67.1875 0.390625 70.5 0.78125 
Q 73.828125 1.171875 73.828125 6.25 
L 73.828125 25 
L 28.90625 25 
Q 26.953125 12.109375 22.65625 3.515625 
Q 18.359375 -5.078125 14.0625 -8.984375 
Q 10.9375 -6.25 6.25 -5.078125 
Q 12.5 0.390625 16.203125 8 
Q 19.921875 15.625 20.890625 23.046875 
Q 21.875 30.46875 21.875 39.453125 
L 21.875 56.640625 
Q 21.875 65.234375 21.484375 75.390625 
L 82.03125 75.390625 
z
M 73.828125 53.125 
L 73.828125 69.53125 
L 29.296875 69.53125 
L 29.296875 53.125 
z
M 73.828125 31.25 
L 73.828125 47.265625 
L 29.296875 47.265625 
L 29.296875 31.25 
z
" id="SimHei-26376"/>
      <path d="M 74.21875 79.6875 
Q 76.171875 68.359375 82.03125 57.03125 
Q 87.890625 45.703125 96.875 38.28125 
Q 94.140625 37.109375 90.234375 32.421875 
Q 87.5 35.546875 83.59375 40.234375 
Q 82.8125 35.546875 82.421875 20.5 
Q 82.03125 5.46875 81.046875 0.390625 
Q 80.078125 -4.6875 75.78125 -6.25 
Q 71.484375 -7.8125 63.671875 -8.59375 
Q 62.5 -3.90625 60.546875 0 
Q 68.75 -0.390625 71.484375 0.390625 
Q 74.21875 1.171875 74.609375 9.171875 
Q 75 17.1875 75.390625 35.15625 
L 57.8125 35.15625 
Q 57.421875 20.3125 53.515625 10.15625 
Q 49.609375 0 37.109375 -9.765625 
Q 33.984375 -5.46875 31.25 -3.515625 
Q 42.96875 3.515625 46.671875 12.5 
Q 50.390625 21.484375 50.390625 35.15625 
Q 46.875 35.15625 41.796875 34.765625 
L 41.796875 40.234375 
Q 38.671875 35.9375 33.59375 30.46875 
Q 31.25 33.59375 27.34375 35.9375 
Q 44.921875 51.171875 50.390625 76.171875 
Q 53.90625 74.609375 58.59375 73.046875 
Q 56.640625 68.75 53.515625 60.734375 
Q 50.390625 52.734375 43.359375 42.1875 
Q 47.65625 41.796875 53.125 41.796875 
L 82.8125 41.796875 
Q 71.484375 56.640625 66.796875 77.734375 
Q 71.484375 78.515625 74.21875 79.6875 
z
M 3.515625 39.453125 
Q 8.984375 44.921875 16.015625 57.609375 
Q 23.046875 70.3125 25.78125 81.640625 
Q 30.859375 79.296875 34.375 77.734375 
Q 32.03125 74.21875 25 58.984375 
L 25 9.765625 
Q 25 1.171875 25.390625 -8.984375 
L 17.1875 -8.984375 
Q 17.578125 0.78125 17.578125 9.765625 
L 17.578125 45.703125 
Q 12.109375 37.5 8.984375 33.984375 
Q 6.640625 36.71875 3.515625 39.453125 
z
" id="SimHei-20221"/>
      <path d="M 32.8125 77.734375 
Q 30.859375 74.21875 27.34375 61.71875 
L 44.921875 61.71875 
Q 44.53125 55.078125 44.53125 44.921875 
L 44.53125 10.546875 
Q 44.53125 4.6875 44.921875 -6.25 
L 37.109375 -6.25 
L 37.109375 1.5625 
L 17.1875 1.5625 
L 17.1875 -7.03125 
L 9.375 -7.03125 
Q 9.765625 5.46875 9.765625 8.59375 
L 9.765625 44.53125 
Q 9.765625 55.078125 9.375 61.71875 
L 20.703125 61.71875 
Q 22.65625 70.703125 23.828125 80.46875 
Q 29.296875 78.515625 32.8125 77.734375 
z
M 91.015625 48.046875 
Q 90.625 24.21875 89.0625 2.734375 
Q 88.28125 -4.296875 81.640625 -6.640625 
Q 75 -8.984375 66.796875 -9.765625 
Q 66.40625 -5.46875 63.28125 -0.78125 
Q 71.09375 -1.171875 75.578125 -0.390625 
Q 80.078125 0.390625 81.25 3.125 
Q 82.421875 5.859375 83 19.140625 
Q 83.59375 32.421875 83.984375 56.25 
L 61.328125 56.25 
Q 58.203125 48.828125 52.34375 38.671875 
Q 49.609375 41.40625 45.703125 42.96875 
Q 49.21875 47.65625 52.34375 54.296875 
Q 55.46875 60.9375 57.8125 68.75 
Q 60.15625 76.5625 60.546875 80.859375 
Q 66.015625 78.515625 69.921875 77.34375 
Q 67.96875 74.21875 66.59375 70.5 
Q 65.234375 66.796875 63.671875 63.28125 
L 91.40625 63.28125 
Q 91.015625 55.078125 91.015625 48.046875 
z
M 37.109375 8.203125 
L 37.109375 28.90625 
L 17.1875 28.90625 
L 17.1875 8.203125 
z
M 37.109375 35.546875 
L 37.109375 55.078125 
L 17.1875 55.078125 
L 17.1875 35.546875 
z
M 67.96875 32.03125 
Q 70.3125 27.34375 73.4375 19.921875 
Q 70.703125 18.75 66.015625 16.015625 
Q 63.28125 23.4375 60.9375 28.703125 
Q 58.59375 33.984375 56.25 37.5 
Q 58.984375 39.0625 63.28125 41.40625 
z
" id="SimHei-30340"/>
      <path d="M 89.84375 52.34375 
Q 89.453125 45.703125 89.453125 41.015625 
L 89.453125 11.71875 
Q 89.453125 3.125 89.84375 -8.984375 
L 82.03125 -8.984375 
L 82.03125 -1.171875 
L 55.078125 -1.171875 
L 55.078125 -8.984375 
L 47.65625 -8.984375 
Q 48.046875 1.953125 48.046875 9.375 
L 48.046875 40.234375 
Q 48.046875 45.3125 47.65625 52.34375 
L 89.84375 52.34375 
z
M 22.65625 41.015625 
Q 22.65625 48.828125 22.265625 55.078125 
L 30.46875 55.078125 
Q 30.078125 50 30.078125 41.015625 
Q 36.328125 41.015625 42.578125 41.40625 
L 42.578125 35.15625 
Q 37.109375 35.546875 30.078125 35.546875 
L 30.078125 26.171875 
Q 32.03125 27.34375 35.546875 30.46875 
Q 42.578125 22.265625 46.09375 17.1875 
Q 42.578125 15.625 39.84375 12.890625 
Q 37.109375 17.96875 30.078125 25.390625 
L 30.078125 8.203125 
Q 30.078125 0 30.46875 -9.765625 
L 22.265625 -9.765625 
Q 22.65625 0 22.65625 8.203125 
L 22.65625 22.65625 
Q 21.09375 18.75 18.546875 13.671875 
Q 16.015625 8.59375 9.375 0.390625 
Q 7.03125 4.6875 3.90625 7.03125 
Q 8.984375 12.109375 13.671875 19.53125 
Q 18.359375 26.953125 20.703125 35.546875 
Q 13.671875 35.546875 7.03125 35.15625 
L 7.03125 41.40625 
Q 13.671875 41.015625 22.65625 41.015625 
z
M 52.34375 67.1875 
Q 44.140625 67.578125 36.328125 67.578125 
Q 37.5 63.28125 39.84375 56.640625 
Q 35.546875 55.46875 32.03125 53.90625 
Q 30.859375 60.546875 28.90625 67.578125 
L 24.21875 67.578125 
Q 20.703125 62.5 17.578125 59.171875 
Q 14.453125 55.859375 10.9375 53.125 
Q 8.203125 56.25 3.90625 58.59375 
Q 12.5 64.453125 17.1875 71.28125 
Q 21.875 78.125 23.4375 82.421875 
Q 27.734375 80.859375 33.203125 79.296875 
Q 30.859375 76.953125 28.515625 73.4375 
L 40.625 73.4375 
Q 47.65625 73.4375 52.34375 73.828125 
z
M 83.984375 57.421875 
Q 80.078125 55.859375 76.5625 54.296875 
Q 75 59.765625 73.046875 66.796875 
L 65.234375 66.796875 
Q 58.984375 57.03125 56.25 53.90625 
Q 51.953125 56.25 48.828125 57.8125 
Q 53.90625 62.890625 57.8125 69.140625 
Q 61.71875 75.390625 64.453125 82.03125 
Q 68.75 80.859375 73.4375 79.296875 
Q 70.703125 76.5625 68.75 72.65625 
L 83.984375 72.65625 
Q 87.5 72.65625 94.921875 73.046875 
L 94.921875 66.40625 
Q 83.984375 66.796875 80.078125 66.796875 
Q 81.25 63.28125 83.984375 57.421875 
z
M 82.03125 4.6875 
L 82.03125 16.015625 
L 55.078125 16.015625 
L 55.078125 4.6875 
z
M 82.03125 37.109375 
L 82.03125 46.875 
L 55.078125 46.875 
L 55.078125 37.109375 
z
M 82.03125 21.875 
L 82.03125 31.25 
L 55.078125 31.25 
L 55.078125 21.875 
z
" id="SimHei-31665"/>
      <path d="M 53.90625 67.1875 
Q 53.90625 73.046875 52.734375 80.078125 
Q 57.8125 79.6875 63.28125 78.90625 
Q 62.109375 76.5625 61.71875 71.28125 
Q 61.328125 66.015625 61.71875 56.25 
L 75 58.59375 
Q 81.640625 60.15625 88.28125 62.109375 
L 89.84375 54.6875 
Q 83.203125 53.90625 76.171875 52.734375 
L 62.109375 50 
Q 62.109375 43.75 62.890625 39.0625 
L 78.125 41.796875 
Q 85.9375 43.359375 92.96875 45.703125 
L 94.140625 38.28125 
Q 87.109375 37.109375 79.296875 35.546875 
L 64.0625 32.8125 
Q 64.84375 25 67.96875 18.359375 
Q 71.484375 21.09375 74.796875 24.609375 
Q 78.125 28.125 80.859375 32.421875 
Q 86.71875 27.734375 89.84375 26.171875 
Q 84.765625 23.828125 81.828125 20.890625 
Q 78.90625 17.96875 72.265625 11.71875 
Q 76.953125 3.90625 80.65625 1.75 
Q 84.375 -0.390625 85.9375 1.5625 
Q 87.5 3.515625 88.671875 9.765625 
Q 92.1875 7.03125 96.875 5.46875 
Q 90.234375 -11.71875 82.421875 -8.390625 
Q 74.609375 -5.078125 66.015625 7.03125 
Q 60.546875 2.734375 55.265625 -0.96875 
Q 50 -4.6875 42.1875 -8.59375 
Q 40.234375 -4.6875 36.328125 -1.5625 
Q 44.140625 1.171875 49.609375 4.296875 
Q 55.078125 7.421875 62.109375 13.28125 
Q 58.59375 21.09375 57.03125 31.640625 
Q 45.3125 29.6875 40.625 28.125 
L 39.453125 35.546875 
Q 44.140625 35.546875 55.46875 37.890625 
Q 54.6875 44.140625 54.6875 48.4375 
Q 44.140625 46.09375 40.234375 44.921875 
L 38.671875 52.34375 
Q 42.578125 52.34375 53.90625 54.6875 
z
M 30.46875 76.171875 
Q 26.5625 72.65625 22.84375 66.203125 
Q 19.140625 59.765625 12.890625 50.390625 
Q 22.265625 50.78125 25.78125 50.78125 
Q 29.296875 56.640625 32.03125 63.671875 
Q 35.9375 60.9375 40.625 59.375 
Q 36.71875 55.46875 32.609375 48.828125 
Q 28.515625 42.1875 18.359375 26.171875 
Q 28.90625 26.953125 37.109375 27.734375 
Q 35.9375 23.828125 35.9375 21.09375 
Q 33.203125 21.09375 23.828125 20.109375 
Q 14.453125 19.140625 8.59375 17.578125 
Q 8.203125 21.484375 6.25 25.78125 
Q 10.9375 26.953125 14.84375 32.03125 
Q 18.75 37.109375 23.046875 44.921875 
Q 10.15625 44.140625 6.640625 41.796875 
Q 5.46875 46.09375 3.125 50.390625 
Q 8.203125 53.90625 12.890625 61.90625 
Q 17.578125 69.921875 21.484375 80.46875 
Q 25.390625 77.734375 30.46875 76.171875 
z
M 40.234375 13.671875 
Q 39.84375 9.375 40.234375 7.03125 
Q 30.46875 5.078125 22.65625 3.125 
Q 14.84375 1.171875 8.203125 -1.171875 
Q 7.03125 3.125 3.90625 7.421875 
Q 14.84375 8.59375 20.703125 9.5625 
Q 26.5625 10.546875 40.234375 13.671875 
z
M 75.78125 62.890625 
Q 73.046875 67.1875 68.359375 73.046875 
L 74.609375 76.171875 
Q 76.171875 74.21875 82.421875 66.796875 
Q 78.515625 65.234375 75.78125 62.890625 
z
" id="SimHei-32447"/>
      <path d="M 90.625 77.734375 
Q 90.234375 67.96875 90.234375 56.25 
L 90.234375 14.453125 
Q 90.234375 2.34375 90.625 -9.375 
L 82.8125 -9.375 
L 82.8125 -4.296875 
L 17.578125 -4.296875 
L 17.578125 -10.15625 
L 9.765625 -10.15625 
Q 10.15625 1.953125 10.15625 14.84375 
L 10.15625 56.25 
Q 10.15625 67.578125 9.765625 77.734375 
L 90.625 77.734375 
z
M 82.8125 2.34375 
L 82.8125 71.484375 
L 17.578125 71.484375 
L 17.578125 2.34375 
z
M 50.390625 66.40625 
Q 48.046875 64.0625 46.09375 61.328125 
L 72.265625 61.328125 
Q 70.703125 57.8125 67.1875 52.734375 
Q 63.671875 47.65625 56.25 40.625 
Q 67.96875 34.765625 79.296875 33.59375 
Q 76.5625 30.078125 74.609375 26.171875 
Q 60.15625 30.46875 50.390625 36.71875 
Q 39.0625 29.296875 26.171875 25.78125 
Q 25 29.296875 21.875 32.421875 
Q 34.375 34.375 44.921875 40.625 
Q 39.453125 45.703125 37.109375 49.21875 
Q 33.59375 45.3125 29.6875 41.40625 
Q 26.953125 44.53125 23.828125 46.09375 
Q 30.46875 51.5625 35.15625 58.390625 
Q 39.84375 65.234375 41.796875 69.921875 
Q 45.703125 67.96875 50.390625 66.40625 
z
M 38.28125 19.921875 
Q 55.46875 14.84375 64.0625 11.328125 
Q 62.109375 8.203125 60.15625 4.6875 
Q 44.140625 11.328125 35.546875 13.28125 
Q 37.109375 16.40625 38.28125 19.921875 
z
M 45.703125 32.03125 
Q 58.984375 26.5625 63.671875 25 
Q 61.71875 21.875 60.15625 17.96875 
Q 46.875 24.21875 42.1875 25.78125 
Q 44.140625 28.515625 45.703125 32.03125 
z
M 41.015625 53.90625 
Q 46.875 47.265625 51.171875 44.53125 
Q 56.25 48.4375 60.546875 55.078125 
L 41.796875 55.078125 
L 41.015625 53.90625 
z
" id="SimHei-22270"/>
     </defs>
     <use xlink:href="#SimHei-57"/>
     <use x="50" xlink:href="#SimHei-20010"/>
     <use x="150" xlink:href="#SimHei-22478"/>
     <use x="250" xlink:href="#SimHei-24066"/>
     <use x="350" xlink:href="#SimHei-19981"/>
     <use x="450" xlink:href="#SimHei-21516"/>
     <use x="550" xlink:href="#SimHei-26376"/>
     <use x="650" xlink:href="#SimHei-20221"/>
     <use x="750" xlink:href="#SimHei-30340"/>
     <use x="850" xlink:href="#SimHei-80"/>
     <use x="900" xlink:href="#SimHei-77"/>
     <use x="950" xlink:href="#SimHei-50"/>
     <use x="1000" xlink:href="#SimHei-46"/>
     <use x="1050" xlink:href="#SimHei-53"/>
     <use x="1100" xlink:href="#SimHei-27987"/>
     <use x="1200" xlink:href="#SimHei-24230"/>
     <use x="1300" xlink:href="#SimHei-31665"/>
     <use x="1400" xlink:href="#SimHei-32447"/>
     <use x="1500" xlink:href="#SimHei-22270"/>
    </g>
   </g>
  </g>
 </g>
 <defs>
  <clipPath id="pd603db8c78">
   <rect height="326.16" width="446.4" x="39.309375" y="29.528125"/>
  </clipPath>
 </defs>
</svg>
